# MagicaVoxel @ Ephtracy

# material
mtllib AtlanteanWall.mtl
usemtl palette

# normals
vn -1 0 0
vn 1 0 0
vn 0 0 1
vn 0 0 -1
vn 0 -1 0
vn 0 1 0

# texcoords
vt 0.306641 0.5
vt 0.779297 0.5
vt 0.978516 0.5
vt 0.986328 0.5

# verts
v -7.5 0 7.5
v -7.5 0 -7.5
v -7.5 11 7.5
v -7.5 11 -7.5
v -7.5 12 7.5
v -7.5 12 -7.5
v -7.5 14 7.5
v -7.5 14 -7.5
v -7.5 15 7.5
v -7.5 15 -7.5
v 6.5 14 6.5
v 6.5 14 -6.5
v 6.5 15 6.5
v 6.5 15 -6.5
v -6.5 14 6.5
v -6.5 14 -6.5
v -6.5 15 6.5
v -6.5 15 -6.5
v 7.5 0 7.5
v 7.5 0 -7.5
v 7.5 11 7.5
v 7.5 11 -7.5
v 7.5 12 7.5
v 7.5 12 -7.5
v 7.5 14 7.5
v 7.5 14 -7.5
v 7.5 15 7.5
v 7.5 15 -7.5
v -7.5 0 7.5
v -7.5 11 7.5
v -7.5 12 7.5
v -7.5 14 7.5
v -7.5 15 7.5
v 7.5 0 7.5
v 7.5 11 7.5
v 7.5 12 7.5
v 7.5 14 7.5
v 7.5 15 7.5
v -6.5 14 -6.5
v -6.5 15 -6.5
v 6.5 14 -6.5
v 6.5 15 -6.5
v -6.5 14 6.5
v -6.5 15 6.5
v 6.5 14 6.5
v 6.5 15 6.5
v -7.5 0 -7.5
v -7.5 11 -7.5
v -7.5 12 -7.5
v -7.5 14 -7.5
v -7.5 15 -7.5
v 7.5 0 -7.5
v 7.5 11 -7.5
v 7.5 12 -7.5
v 7.5 14 -7.5
v 7.5 15 -7.5
v -7.5 0 7.5
v 7.5 0 7.5
v -7.5 0 -7.5
v 7.5 0 -7.5
v -6.5 14 6.5
v 6.5 14 6.5
v -6.5 14 -6.5
v 6.5 14 -6.5
v -7.5 15 7.5
v 7.5 15 7.5
v -6.5 15 6.5
v 6.5 15 6.5
v -6.5 15 -6.5
v 6.5 15 -6.5
v -7.5 15 -7.5
v 7.5 15 -7.5

# faces
f 3/3/1 2/3/1 1/3/1
f 4/3/1 2/3/1 3/3/1
f 5/4/1 4/4/1 3/4/1
f 6/4/1 4/4/1 5/4/1
f 7/3/1 6/3/1 5/3/1
f 8/3/1 6/3/1 7/3/1
f 9/4/1 8/4/1 7/4/1
f 10/4/1 8/4/1 9/4/1
f 13/4/1 12/4/1 11/4/1
f 14/4/1 12/4/1 13/4/1
f 15/4/2 16/4/2 17/4/2
f 17/4/2 16/4/2 18/4/2
f 19/3/2 20/3/2 21/3/2
f 21/3/2 20/3/2 22/3/2
f 21/4/2 22/4/2 23/4/2
f 23/4/2 22/4/2 24/4/2
f 23/3/2 24/3/2 25/3/2
f 25/3/2 24/3/2 26/3/2
f 25/4/2 26/4/2 27/4/2
f 27/4/2 26/4/2 28/4/2
f 34/3/3 30/3/3 29/3/3
f 35/4/3 31/4/3 30/4/3
f 35/3/3 30/3/3 34/3/3
f 36/3/3 32/3/3 31/3/3
f 36/4/3 31/4/3 35/4/3
f 37/4/3 33/4/3 32/4/3
f 37/3/3 32/3/3 36/3/3
f 38/4/3 33/4/3 37/4/3
f 41/4/3 40/4/3 39/4/3
f 42/4/3 40/4/3 41/4/3
f 43/4/4 44/4/4 45/4/4
f 45/4/4 44/4/4 46/4/4
f 47/3/4 48/3/4 52/3/4
f 48/4/4 49/4/4 53/4/4
f 52/3/4 48/3/4 53/3/4
f 49/3/4 50/3/4 54/3/4
f 53/4/4 49/4/4 54/4/4
f 50/4/4 51/4/4 55/4/4
f 54/3/4 50/3/4 55/3/4
f 55/4/4 51/4/4 56/4/4
f 59/3/5 58/3/5 57/3/5
f 60/3/5 58/3/5 59/3/5
f 61/3/6 62/3/6 63/3/6
f 63/3/6 62/3/6 64/3/6
f 65/4/6 66/4/6 67/4/6
f 67/4/6 66/4/6 68/4/6
f 65/4/6 67/4/6 69/4/6
f 68/4/6 66/4/6 70/4/6
f 65/4/6 69/4/6 71/4/6
f 69/4/6 70/4/6 71/4/6
f 70/4/6 66/4/6 72/4/6
f 71/4/6 70/4/6 72/4/6
