# MagicaVoxel @ Ephtracy

# material
mtllib Atlantean Wall Top.mtl
usemtl palette

# normals
vn -1 0 0
vn 1 0 0
vn 0 0 1
vn 0 0 -1
vn 0 -1 0
vn 0 1 0

# texcoords
vt 0.201172 0.5
vt 0.646484 0.5

# verts
v -7.5 0 7.5
v -7.5 0 -7.5
v -7.5 1 7.5
v -7.5 1 -7.5
v -7.5 3 7.5
v -7.5 3 -7.5
v -7.5 4 7.5
v -7.5 4 -7.5
v -7.5 11 7.5
v -7.5 11 -7.5
v -7.5 12 7.5
v -7.5 12 -7.5
v -7.5 14 7.5
v -7.5 14 -7.5
v -6.5 14 6.5
v -6.5 14 -6.5
v -6.5 15 6.5
v -6.5 15 -6.5
v -3.5 14 3.5
v -3.5 14 -3.5
v -3.5 15 3.5
v -3.5 15 -3.5
v 5.5 14 5.5
v 5.5 14 -5.5
v 5.5 15 5.5
v 5.5 15 -5.5
v -5.5 14 5.5
v -5.5 14 -5.5
v -5.5 15 5.5
v -5.5 15 -5.5
v 3.5 14 3.5
v 3.5 14 -3.5
v 3.5 15 3.5
v 3.5 15 -3.5
v 6.5 14 6.5
v 6.5 14 -6.5
v 6.5 15 6.5
v 6.5 15 -6.5
v 7.5 0 7.5
v 7.5 0 -7.5
v 7.5 1 7.5
v 7.5 1 -7.5
v 7.5 3 7.5
v 7.5 3 -7.5
v 7.5 4 7.5
v 7.5 4 -7.5
v 7.5 11 7.5
v 7.5 11 -7.5
v 7.5 12 7.5
v 7.5 12 -7.5
v 7.5 14 7.5
v 7.5 14 -7.5
v -7.5 0 7.5
v -7.5 1 7.5
v -7.5 3 7.5
v -7.5 4 7.5
v -7.5 11 7.5
v -7.5 12 7.5
v -7.5 14 7.5
v 7.5 0 7.5
v 7.5 1 7.5
v 7.5 3 7.5
v 7.5 4 7.5
v 7.5 11 7.5
v 7.5 12 7.5
v 7.5 14 7.5
v -6.5 14 6.5
v -6.5 15 6.5
v 6.5 14 6.5
v 6.5 15 6.5
v -3.5 14 3.5
v -3.5 15 3.5
v 3.5 14 3.5
v 3.5 15 3.5
v -5.5 14 -5.5
v -5.5 15 -5.5
v 5.5 14 -5.5
v 5.5 15 -5.5
v -5.5 14 5.5
v -5.5 15 5.5
v 5.5 14 5.5
v 5.5 15 5.5
v -3.5 14 -3.5
v -3.5 15 -3.5
v 3.5 14 -3.5
v 3.5 15 -3.5
v -6.5 14 -6.5
v -6.5 15 -6.5
v 6.5 14 -6.5
v 6.5 15 -6.5
v -7.5 0 -7.5
v -7.5 1 -7.5
v -7.5 3 -7.5
v -7.5 4 -7.5
v -7.5 11 -7.5
v -7.5 12 -7.5
v -7.5 14 -7.5
v 7.5 0 -7.5
v 7.5 1 -7.5
v 7.5 3 -7.5
v 7.5 4 -7.5
v 7.5 11 -7.5
v 7.5 12 -7.5
v 7.5 14 -7.5
v -7.5 0 7.5
v 7.5 0 7.5
v -7.5 0 -7.5
v 7.5 0 -7.5
v -7.5 14 7.5
v 7.5 14 7.5
v -6.5 14 6.5
v 6.5 14 6.5
v -5.5 14 5.5
v 5.5 14 5.5
v -3.5 14 3.5
v 3.5 14 3.5
v -3.5 14 -3.5
v 3.5 14 -3.5
v -5.5 14 -5.5
v 5.5 14 -5.5
v -6.5 14 -6.5
v 6.5 14 -6.5
v -7.5 14 -7.5
v 7.5 14 -7.5
v -6.5 15 6.5
v 6.5 15 6.5
v -5.5 15 5.5
v 5.5 15 5.5
v -3.5 15 3.5
v 3.5 15 3.5
v -3.5 15 -3.5
v 3.5 15 -3.5
v -5.5 15 -5.5
v 5.5 15 -5.5
v -6.5 15 -6.5
v 6.5 15 -6.5

# faces
f 3/2/1 2/2/1 1/2/1
f 4/2/1 2/2/1 3/2/1
f 5/1/1 4/1/1 3/1/1
f 6/1/1 4/1/1 5/1/1
f 7/2/1 6/2/1 5/2/1
f 8/2/1 6/2/1 7/2/1
f 9/1/1 8/1/1 7/1/1
f 10/1/1 8/1/1 9/1/1
f 11/2/1 10/2/1 9/2/1
f 12/2/1 10/2/1 11/2/1
f 13/1/1 12/1/1 11/1/1
f 14/1/1 12/1/1 13/1/1
f 17/2/1 16/2/1 15/2/1
f 18/2/1 16/2/1 17/2/1
f 21/2/1 20/2/1 19/2/1
f 22/2/1 20/2/1 21/2/1
f 25/2/1 24/2/1 23/2/1
f 26/2/1 24/2/1 25/2/1
f 27/2/2 28/2/2 29/2/2
f 29/2/2 28/2/2 30/2/2
f 31/2/2 32/2/2 33/2/2
f 33/2/2 32/2/2 34/2/2
f 35/2/2 36/2/2 37/2/2
f 37/2/2 36/2/2 38/2/2
f 39/2/2 40/2/2 41/2/2
f 41/2/2 40/2/2 42/2/2
f 41/1/2 42/1/2 43/1/2
f 43/1/2 42/1/2 44/1/2
f 43/2/2 44/2/2 45/2/2
f 45/2/2 44/2/2 46/2/2
f 45/1/2 46/1/2 47/1/2
f 47/1/2 46/1/2 48/1/2
f 47/2/2 48/2/2 49/2/2
f 49/2/2 48/2/2 50/2/2
f 49/1/2 50/1/2 51/1/2
f 51/1/2 50/1/2 52/1/2
f 60/2/3 54/2/3 53/2/3
f 61/1/3 55/1/3 54/1/3
f 61/2/3 54/2/3 60/2/3
f 62/2/3 56/2/3 55/2/3
f 62/1/3 55/1/3 61/1/3
f 63/1/3 57/1/3 56/1/3
f 63/2/3 56/2/3 62/2/3
f 64/2/3 58/2/3 57/2/3
f 64/1/3 57/1/3 63/1/3
f 65/1/3 59/1/3 58/1/3
f 65/2/3 58/2/3 64/2/3
f 66/1/3 59/1/3 65/1/3
f 69/2/3 68/2/3 67/2/3
f 70/2/3 68/2/3 69/2/3
f 73/2/3 72/2/3 71/2/3
f 74/2/3 72/2/3 73/2/3
f 77/2/3 76/2/3 75/2/3
f 78/2/3 76/2/3 77/2/3
f 79/2/4 80/2/4 81/2/4
f 81/2/4 80/2/4 82/2/4
f 83/2/4 84/2/4 85/2/4
f 85/2/4 84/2/4 86/2/4
f 87/2/4 88/2/4 89/2/4
f 89/2/4 88/2/4 90/2/4
f 91/2/4 92/2/4 98/2/4
f 92/1/4 93/1/4 99/1/4
f 98/2/4 92/2/4 99/2/4
f 93/2/4 94/2/4 100/2/4
f 99/1/4 93/1/4 100/1/4
f 94/1/4 95/1/4 101/1/4
f 100/2/4 94/2/4 101/2/4
f 95/2/4 96/2/4 102/2/4
f 101/1/4 95/1/4 102/1/4
f 96/1/4 97/1/4 103/1/4
f 102/2/4 96/2/4 103/2/4
f 103/1/4 97/1/4 104/1/4
f 107/2/5 106/2/5 105/2/5
f 108/2/5 106/2/5 107/2/5
f 109/1/6 110/1/6 111/1/6
f 111/1/6 110/1/6 112/1/6
f 113/1/6 114/1/6 115/1/6
f 115/1/6 114/1/6 116/1/6
f 113/1/6 115/1/6 117/1/6
f 116/1/6 114/1/6 118/1/6
f 113/1/6 117/1/6 119/1/6
f 117/1/6 118/1/6 119/1/6
f 118/1/6 114/1/6 120/1/6
f 119/1/6 118/1/6 120/1/6
f 109/1/6 111/1/6 121/1/6
f 112/1/6 110/1/6 122/1/6
f 109/1/6 121/1/6 123/1/6
f 121/1/6 122/1/6 123/1/6
f 122/1/6 110/1/6 124/1/6
f 123/1/6 122/1/6 124/1/6
f 125/2/6 126/2/6 127/2/6
f 127/2/6 126/2/6 128/2/6
f 129/2/6 130/2/6 131/2/6
f 131/2/6 130/2/6 132/2/6
f 125/2/6 127/2/6 133/2/6
f 128/2/6 126/2/6 134/2/6
f 125/2/6 133/2/6 135/2/6
f 133/2/6 134/2/6 135/2/6
f 134/2/6 126/2/6 136/2/6
f 135/2/6 134/2/6 136/2/6
