# MagicaVoxel @ Ephtracy

# material
mtllib Atlantean Wall Top.mtl
usemtl palette

# normals
vn -1 0 0
vn 1 0 0
vn 0 0 1
vn 0 0 -1
vn 0 -1 0
vn 0 1 0

# texcoords
vt 0.201172 0.5
vt 0.646484 0.5

# verts
v -7.5 0 7.5
v -7.5 0 -7.5
v -7.5 1 7.5
v -7.5 1 -7.5
v -7.5 2 6.5
v -7.5 2 5.5
v -7.5 2 3.5
v -7.5 2 2.5
v -7.5 2 0.5
v -7.5 2 -0.5
v -7.5 2 -2.5
v -7.5 2 -3.5
v -7.5 2 -5.5
v -7.5 2 -6.5
v -7.5 3 7.5
v -7.5 3 6.5
v -7.5 3 5.5
v -7.5 3 3.5
v -7.5 3 2.5
v -7.5 3 0.5
v -7.5 3 -0.5
v -7.5 3 -2.5
v -7.5 3 -3.5
v -7.5 3 -5.5
v -7.5 3 -6.5
v -7.5 3 -7.5
v -7.5 4 7.5
v -7.5 4 -7.5
v -7.5 11 7.5
v -7.5 11 -7.5
v -7.5 12 7.5
v -7.5 12 6.5
v -7.5 12 5.5
v -7.5 12 3.5
v -7.5 12 2.5
v -7.5 12 0.5
v -7.5 12 -0.5
v -7.5 12 -2.5
v -7.5 12 -3.5
v -7.5 12 -5.5
v -7.5 12 -6.5
v -7.5 12 -7.5
v -7.5 13 6.5
v -7.5 13 5.5
v -7.5 13 3.5
v -7.5 13 2.5
v -7.5 13 0.5
v -7.5 13 -0.5
v -7.5 13 -2.5
v -7.5 13 -3.5
v -7.5 13 -5.5
v -7.5 13 -6.5
v -7.5 14 7.5
v -7.5 14 -7.5
v -6.5 14 6.5
v -6.5 14 -6.5
v -6.5 15 6.5
v -6.5 15 -6.5
v -3.5 14 3.5
v -3.5 14 -3.5
v -3.5 15 3.5
v -3.5 15 -3.5
v 5.5 14 5.5
v 5.5 14 -5.5
v 5.5 15 5.5
v 5.5 15 -5.5
v -5.5 14 5.5
v -5.5 14 -5.5
v -5.5 15 5.5
v -5.5 15 -5.5
v 3.5 14 3.5
v 3.5 14 -3.5
v 3.5 15 3.5
v 3.5 15 -3.5
v 6.5 14 6.5
v 6.5 14 -6.5
v 6.5 15 6.5
v 6.5 15 -6.5
v 7.5 0 7.5
v 7.5 0 -7.5
v 7.5 1 7.5
v 7.5 1 -7.5
v 7.5 2 6.5
v 7.5 2 5.5
v 7.5 2 3.5
v 7.5 2 2.5
v 7.5 2 0.5
v 7.5 2 -0.5
v 7.5 2 -2.5
v 7.5 2 -3.5
v 7.5 2 -5.5
v 7.5 2 -6.5
v 7.5 3 7.5
v 7.5 3 6.5
v 7.5 3 5.5
v 7.5 3 3.5
v 7.5 3 2.5
v 7.5 3 0.5
v 7.5 3 -0.5
v 7.5 3 -2.5
v 7.5 3 -3.5
v 7.5 3 -5.5
v 7.5 3 -6.5
v 7.5 3 -7.5
v 7.5 4 7.5
v 7.5 4 -7.5
v 7.5 11 7.5
v 7.5 11 -7.5
v 7.5 12 7.5
v 7.5 12 6.5
v 7.5 12 5.5
v 7.5 12 3.5
v 7.5 12 2.5
v 7.5 12 0.5
v 7.5 12 -0.5
v 7.5 12 -2.5
v 7.5 12 -3.5
v 7.5 12 -5.5
v 7.5 12 -6.5
v 7.5 12 -7.5
v 7.5 13 6.5
v 7.5 13 5.5
v 7.5 13 3.5
v 7.5 13 2.5
v 7.5 13 0.5
v 7.5 13 -0.5
v 7.5 13 -2.5
v 7.5 13 -3.5
v 7.5 13 -5.5
v 7.5 13 -6.5
v 7.5 14 7.5
v 7.5 14 -7.5
v -7.5 0 7.5
v -7.5 1 7.5
v -7.5 3 7.5
v -7.5 4 7.5
v -7.5 11 7.5
v -7.5 12 7.5
v -7.5 14 7.5
v -6.5 2 7.5
v -6.5 3 7.5
v -6.5 12 7.5
v -6.5 13 7.5
v -5.5 2 7.5
v -5.5 3 7.5
v -5.5 12 7.5
v -5.5 13 7.5
v -3.5 2 7.5
v -3.5 3 7.5
v -3.5 12 7.5
v -3.5 13 7.5
v -2.5 2 7.5
v -2.5 3 7.5
v -2.5 12 7.5
v -2.5 13 7.5
v -0.5 2 7.5
v -0.5 3 7.5
v -0.5 12 7.5
v -0.5 13 7.5
v 0.5 2 7.5
v 0.5 3 7.5
v 0.5 12 7.5
v 0.5 13 7.5
v 2.5 2 7.5
v 2.5 3 7.5
v 2.5 12 7.5
v 2.5 13 7.5
v 3.5 2 7.5
v 3.5 3 7.5
v 3.5 12 7.5
v 3.5 13 7.5
v 5.5 2 7.5
v 5.5 3 7.5
v 5.5 12 7.5
v 5.5 13 7.5
v 6.5 2 7.5
v 6.5 3 7.5
v 6.5 12 7.5
v 6.5 13 7.5
v 7.5 0 7.5
v 7.5 1 7.5
v 7.5 3 7.5
v 7.5 4 7.5
v 7.5 11 7.5
v 7.5 12 7.5
v 7.5 14 7.5
v -6.5 14 6.5
v -6.5 15 6.5
v 6.5 14 6.5
v 6.5 15 6.5
v -3.5 14 3.5
v -3.5 15 3.5
v 3.5 14 3.5
v 3.5 15 3.5
v -5.5 14 -5.5
v -5.5 15 -5.5
v 5.5 14 -5.5
v 5.5 15 -5.5
v -5.5 14 5.5
v -5.5 15 5.5
v 5.5 14 5.5
v 5.5 15 5.5
v -3.5 14 -3.5
v -3.5 15 -3.5
v 3.5 14 -3.5
v 3.5 15 -3.5
v -6.5 14 -6.5
v -6.5 15 -6.5
v 6.5 14 -6.5
v 6.5 15 -6.5
v -7.5 0 -7.5
v -7.5 1 -7.5
v -7.5 3 -7.5
v -7.5 4 -7.5
v -7.5 11 -7.5
v -7.5 12 -7.5
v -7.5 14 -7.5
v -6.5 2 -7.5
v -6.5 3 -7.5
v -6.5 12 -7.5
v -6.5 13 -7.5
v -5.5 2 -7.5
v -5.5 3 -7.5
v -5.5 12 -7.5
v -5.5 13 -7.5
v -3.5 2 -7.5
v -3.5 3 -7.5
v -3.5 12 -7.5
v -3.5 13 -7.5
v -2.5 2 -7.5
v -2.5 3 -7.5
v -2.5 12 -7.5
v -2.5 13 -7.5
v -0.5 2 -7.5
v -0.5 3 -7.5
v -0.5 12 -7.5
v -0.5 13 -7.5
v 0.5 2 -7.5
v 0.5 3 -7.5
v 0.5 12 -7.5
v 0.5 13 -7.5
v 2.5 2 -7.5
v 2.5 3 -7.5
v 2.5 12 -7.5
v 2.5 13 -7.5
v 3.5 2 -7.5
v 3.5 3 -7.5
v 3.5 12 -7.5
v 3.5 13 -7.5
v 5.5 2 -7.5
v 5.5 3 -7.5
v 5.5 12 -7.5
v 5.5 13 -7.5
v 6.5 2 -7.5
v 6.5 3 -7.5
v 6.5 12 -7.5
v 6.5 13 -7.5
v 7.5 0 -7.5
v 7.5 1 -7.5
v 7.5 3 -7.5
v 7.5 4 -7.5
v 7.5 11 -7.5
v 7.5 12 -7.5
v 7.5 14 -7.5
v -7.5 0 7.5
v 7.5 0 7.5
v -7.5 0 -7.5
v 7.5 0 -7.5
v -7.5 14 7.5
v 7.5 14 7.5
v -6.5 14 6.5
v 6.5 14 6.5
v -5.5 14 5.5
v 5.5 14 5.5
v -3.5 14 3.5
v 3.5 14 3.5
v -3.5 14 -3.5
v 3.5 14 -3.5
v -5.5 14 -5.5
v 5.5 14 -5.5
v -6.5 14 -6.5
v 6.5 14 -6.5
v -7.5 14 -7.5
v 7.5 14 -7.5
v -6.5 15 6.5
v 6.5 15 6.5
v -5.5 15 5.5
v 5.5 15 5.5
v -3.5 15 3.5
v 3.5 15 3.5
v -3.5 15 -3.5
v 3.5 15 -3.5
v -5.5 15 -5.5
v 5.5 15 -5.5
v -6.5 15 -6.5
v 6.5 15 -6.5

# faces
f 3/2/1 2/2/1 1/2/1
f 4/2/1 2/2/1 3/2/1
f 5/1/1 4/1/1 3/1/1
f 6/1/1 4/1/1 5/1/1
f 7/1/1 4/1/1 6/1/1
f 8/1/1 4/1/1 7/1/1
f 9/1/1 4/1/1 8/1/1
f 10/1/1 4/1/1 9/1/1
f 11/1/1 4/1/1 10/1/1
f 12/1/1 4/1/1 11/1/1
f 13/1/1 4/1/1 12/1/1
f 14/1/1 4/1/1 13/1/1
f 15/1/1 5/1/1 3/1/1
f 16/2/1 6/2/1 5/2/1
f 16/1/1 5/1/1 15/1/1
f 17/1/1 7/1/1 6/1/1
f 17/2/1 6/2/1 16/2/1
f 18/2/1 8/2/1 7/2/1
f 18/1/1 7/1/1 17/1/1
f 19/1/1 9/1/1 8/1/1
f 19/2/1 8/2/1 18/2/1
f 20/2/1 10/2/1 9/2/1
f 20/1/1 9/1/1 19/1/1
f 21/1/1 11/1/1 10/1/1
f 21/2/1 10/2/1 20/2/1
f 22/2/1 12/2/1 11/2/1
f 22/1/1 11/1/1 21/1/1
f 23/1/1 13/1/1 12/1/1
f 23/2/1 12/2/1 22/2/1
f 24/2/1 14/2/1 13/2/1
f 24/1/1 13/1/1 23/1/1
f 25/1/1 4/1/1 14/1/1
f 25/2/1 14/2/1 24/2/1
f 26/1/1 4/1/1 25/1/1
f 27/2/1 24/2/1 23/2/1
f 27/2/1 16/2/1 15/2/1
f 27/2/1 26/2/1 25/2/1
f 27/2/1 25/2/1 24/2/1
f 27/2/1 23/2/1 22/2/1
f 27/2/1 22/2/1 21/2/1
f 27/2/1 21/2/1 20/2/1
f 27/2/1 20/2/1 19/2/1
f 27/2/1 19/2/1 18/2/1
f 27/2/1 18/2/1 17/2/1
f 27/2/1 17/2/1 16/2/1
f 28/2/1 26/2/1 27/2/1
f 29/1/1 28/1/1 27/1/1
f 30/1/1 28/1/1 29/1/1
f 31/2/1 30/2/1 29/2/1
f 32/2/1 30/2/1 31/2/1
f 33/2/1 30/2/1 32/2/1
f 34/2/1 30/2/1 33/2/1
f 35/2/1 30/2/1 34/2/1
f 36/2/1 30/2/1 35/2/1
f 37/2/1 30/2/1 36/2/1
f 38/2/1 30/2/1 37/2/1
f 39/2/1 30/2/1 38/2/1
f 40/2/1 30/2/1 39/2/1
f 41/2/1 30/2/1 40/2/1
f 42/2/1 30/2/1 41/2/1
f 43/1/1 32/1/1 31/1/1
f 43/2/1 33/2/1 32/2/1
f 44/1/1 34/1/1 33/1/1
f 44/2/1 33/2/1 43/2/1
f 45/2/1 35/2/1 34/2/1
f 45/1/1 34/1/1 44/1/1
f 46/1/1 36/1/1 35/1/1
f 46/2/1 35/2/1 45/2/1
f 47/2/1 37/2/1 36/2/1
f 47/1/1 36/1/1 46/1/1
f 48/1/1 38/1/1 37/1/1
f 48/2/1 37/2/1 47/2/1
f 49/2/1 39/2/1 38/2/1
f 49/1/1 38/1/1 48/1/1
f 50/1/1 40/1/1 39/1/1
f 50/2/1 39/2/1 49/2/1
f 51/2/1 41/2/1 40/2/1
f 51/1/1 40/1/1 50/1/1
f 52/1/1 42/1/1 41/1/1
f 52/2/1 41/2/1 51/2/1
f 53/1/1 51/1/1 50/1/1
f 53/1/1 43/1/1 31/1/1
f 53/1/1 52/1/1 51/1/1
f 53/1/1 50/1/1 49/1/1
f 53/1/1 49/1/1 48/1/1
f 53/1/1 48/1/1 47/1/1
f 53/1/1 47/1/1 46/1/1
f 53/1/1 46/1/1 45/1/1
f 53/1/1 45/1/1 44/1/1
f 53/1/1 44/1/1 43/1/1
f 54/1/1 42/1/1 52/1/1
f 54/1/1 52/1/1 53/1/1
f 57/2/1 56/2/1 55/2/1
f 58/2/1 56/2/1 57/2/1
f 61/2/1 60/2/1 59/2/1
f 62/2/1 60/2/1 61/2/1
f 65/2/1 64/2/1 63/2/1
f 66/2/1 64/2/1 65/2/1
f 67/2/2 68/2/2 69/2/2
f 69/2/2 68/2/2 70/2/2
f 71/2/2 72/2/2 73/2/2
f 73/2/2 72/2/2 74/2/2
f 75/2/2 76/2/2 77/2/2
f 77/2/2 76/2/2 78/2/2
f 79/2/2 80/2/2 81/2/2
f 81/2/2 80/2/2 82/2/2
f 81/1/2 82/1/2 83/1/2
f 83/1/2 82/1/2 84/1/2
f 84/1/2 82/1/2 85/1/2
f 85/1/2 82/1/2 86/1/2
f 86/1/2 82/1/2 87/1/2
f 87/1/2 82/1/2 88/1/2
f 88/1/2 82/1/2 89/1/2
f 89/1/2 82/1/2 90/1/2
f 90/1/2 82/1/2 91/1/2
f 91/1/2 82/1/2 92/1/2
f 81/1/2 83/1/2 93/1/2
f 83/2/2 84/2/2 94/2/2
f 93/1/2 83/1/2 94/1/2
f 84/1/2 85/1/2 95/1/2
f 94/2/2 84/2/2 95/2/2
f 85/2/2 86/2/2 96/2/2
f 95/1/2 85/1/2 96/1/2
f 86/1/2 87/1/2 97/1/2
f 96/2/2 86/2/2 97/2/2
f 87/2/2 88/2/2 98/2/2
f 97/1/2 87/1/2 98/1/2
f 88/1/2 89/1/2 99/1/2
f 98/2/2 88/2/2 99/2/2
f 89/2/2 90/2/2 100/2/2
f 99/1/2 89/1/2 100/1/2
f 90/1/2 91/1/2 101/1/2
f 100/2/2 90/2/2 101/2/2
f 91/2/2 92/2/2 102/2/2
f 101/1/2 91/1/2 102/1/2
f 92/1/2 82/1/2 103/1/2
f 102/2/2 92/2/2 103/2/2
f 103/1/2 82/1/2 104/1/2
f 101/2/2 102/2/2 105/2/2
f 93/2/2 94/2/2 105/2/2
f 103/2/2 104/2/2 105/2/2
f 102/2/2 103/2/2 105/2/2
f 100/2/2 101/2/2 105/2/2
f 99/2/2 100/2/2 105/2/2
f 98/2/2 99/2/2 105/2/2
f 97/2/2 98/2/2 105/2/2
f 96/2/2 97/2/2 105/2/2
f 95/2/2 96/2/2 105/2/2
f 94/2/2 95/2/2 105/2/2
f 105/2/2 104/2/2 106/2/2
f 105/1/2 106/1/2 107/1/2
f 107/1/2 106/1/2 108/1/2
f 107/2/2 108/2/2 109/2/2
f 109/2/2 108/2/2 110/2/2
f 110/2/2 108/2/2 111/2/2
f 111/2/2 108/2/2 112/2/2
f 112/2/2 108/2/2 113/2/2
f 113/2/2 108/2/2 114/2/2
f 114/2/2 108/2/2 115/2/2
f 115/2/2 108/2/2 116/2/2
f 116/2/2 108/2/2 117/2/2
f 117/2/2 108/2/2 118/2/2
f 118/2/2 108/2/2 119/2/2
f 119/2/2 108/2/2 120/2/2
f 109/1/2 110/1/2 121/1/2
f 110/2/2 111/2/2 121/2/2
f 111/1/2 112/1/2 122/1/2
f 121/2/2 111/2/2 122/2/2
f 112/2/2 113/2/2 123/2/2
f 122/1/2 112/1/2 123/1/2
f 113/1/2 114/1/2 124/1/2
f 123/2/2 113/2/2 124/2/2
f 114/2/2 115/2/2 125/2/2
f 124/1/2 114/1/2 125/1/2
f 115/1/2 116/1/2 126/1/2
f 125/2/2 115/2/2 126/2/2
f 116/2/2 117/2/2 127/2/2
f 126/1/2 116/1/2 127/1/2
f 117/1/2 118/1/2 128/1/2
f 127/2/2 117/2/2 128/2/2
f 118/2/2 119/2/2 129/2/2
f 128/1/2 118/1/2 129/1/2
f 119/1/2 120/1/2 130/1/2
f 129/2/2 119/2/2 130/2/2
f 128/1/2 129/1/2 131/1/2
f 109/1/2 121/1/2 131/1/2
f 129/1/2 130/1/2 131/1/2
f 127/1/2 128/1/2 131/1/2
f 126/1/2 127/1/2 131/1/2
f 125/1/2 126/1/2 131/1/2
f 124/1/2 125/1/2 131/1/2
f 123/1/2 124/1/2 131/1/2
f 122/1/2 123/1/2 131/1/2
f 121/1/2 122/1/2 131/1/2
f 130/1/2 120/1/2 132/1/2
f 131/1/2 130/1/2 132/1/2
f 140/1/3 135/1/3 134/1/3
f 141/2/3 136/2/3 135/2/3
f 141/1/3 135/1/3 140/1/3
f 142/1/3 139/1/3 138/1/3
f 142/2/3 138/2/3 137/2/3
f 143/1/3 139/1/3 142/1/3
f 144/1/3 140/1/3 134/1/3
f 144/2/3 141/2/3 140/2/3
f 145/2/3 136/2/3 141/2/3
f 145/2/3 141/2/3 144/2/3
f 146/2/3 143/2/3 142/2/3
f 146/2/3 142/2/3 137/2/3
f 147/1/3 139/1/3 143/1/3
f 147/2/3 143/2/3 146/2/3
f 148/1/3 144/1/3 134/1/3
f 148/1/3 145/1/3 144/1/3
f 149/2/3 136/2/3 145/2/3
f 149/1/3 145/1/3 148/1/3
f 150/2/3 146/2/3 137/2/3
f 150/1/3 147/1/3 146/1/3
f 151/1/3 139/1/3 147/1/3
f 151/1/3 147/1/3 150/1/3
f 152/1/3 148/1/3 134/1/3
f 152/2/3 149/2/3 148/2/3
f 153/2/3 136/2/3 149/2/3
f 153/2/3 149/2/3 152/2/3
f 154/2/3 150/2/3 137/2/3
f 154/2/3 151/2/3 150/2/3
f 155/1/3 139/1/3 151/1/3
f 155/2/3 151/2/3 154/2/3
f 156/1/3 152/1/3 134/1/3
f 156/1/3 153/1/3 152/1/3
f 157/2/3 136/2/3 153/2/3
f 157/1/3 153/1/3 156/1/3
f 158/2/3 154/2/3 137/2/3
f 158/1/3 155/1/3 154/1/3
f 159/1/3 139/1/3 155/1/3
f 159/1/3 155/1/3 158/1/3
f 160/1/3 156/1/3 134/1/3
f 160/2/3 157/2/3 156/2/3
f 161/2/3 136/2/3 157/2/3
f 161/2/3 157/2/3 160/2/3
f 162/2/3 158/2/3 137/2/3
f 162/2/3 159/2/3 158/2/3
f 163/1/3 139/1/3 159/1/3
f 163/2/3 159/2/3 162/2/3
f 164/1/3 160/1/3 134/1/3
f 164/1/3 161/1/3 160/1/3
f 165/2/3 136/2/3 161/2/3
f 165/1/3 161/1/3 164/1/3
f 166/2/3 162/2/3 137/2/3
f 166/1/3 163/1/3 162/1/3
f 167/1/3 139/1/3 163/1/3
f 167/1/3 163/1/3 166/1/3
f 168/1/3 164/1/3 134/1/3
f 168/2/3 165/2/3 164/2/3
f 169/2/3 136/2/3 165/2/3
f 169/2/3 165/2/3 168/2/3
f 170/2/3 166/2/3 137/2/3
f 170/2/3 167/2/3 166/2/3
f 171/1/3 139/1/3 167/1/3
f 171/2/3 167/2/3 170/2/3
f 172/1/3 168/1/3 134/1/3
f 172/1/3 169/1/3 168/1/3
f 173/2/3 136/2/3 169/2/3
f 173/1/3 169/1/3 172/1/3
f 174/2/3 170/2/3 137/2/3
f 174/1/3 171/1/3 170/1/3
f 175/1/3 139/1/3 171/1/3
f 175/1/3 171/1/3 174/1/3
f 176/1/3 172/1/3 134/1/3
f 176/2/3 173/2/3 172/2/3
f 177/2/3 136/2/3 173/2/3
f 177/2/3 173/2/3 176/2/3
f 178/2/3 174/2/3 137/2/3
f 178/2/3 175/2/3 174/2/3
f 179/1/3 139/1/3 175/1/3
f 179/2/3 175/2/3 178/2/3
f 180/2/3 134/2/3 133/2/3
f 181/1/3 176/1/3 134/1/3
f 181/2/3 134/2/3 180/2/3
f 181/1/3 177/1/3 176/1/3
f 182/2/3 136/2/3 177/2/3
f 182/1/3 177/1/3 181/1/3
f 183/1/3 137/1/3 136/1/3
f 183/2/3 136/2/3 182/2/3
f 184/2/3 178/2/3 137/2/3
f 184/1/3 137/1/3 183/1/3
f 185/1/3 179/1/3 178/1/3
f 185/2/3 178/2/3 184/2/3
f 186/1/3 139/1/3 179/1/3
f 186/1/3 179/1/3 185/1/3
f 189/2/3 188/2/3 187/2/3
f 190/2/3 188/2/3 189/2/3
f 193/2/3 192/2/3 191/2/3
f 194/2/3 192/2/3 193/2/3
f 197/2/3 196/2/3 195/2/3
f 198/2/3 196/2/3 197/2/3
f 199/2/4 200/2/4 201/2/4
f 201/2/4 200/2/4 202/2/4
f 203/2/4 204/2/4 205/2/4
f 205/2/4 204/2/4 206/2/4
f 207/2/4 208/2/4 209/2/4
f 209/2/4 208/2/4 210/2/4
f 212/1/4 213/1/4 218/1/4
f 213/2/4 214/2/4 219/2/4
f 218/1/4 213/1/4 219/1/4
f 216/1/4 217/1/4 220/1/4
f 215/2/4 216/2/4 220/2/4
f 220/1/4 217/1/4 221/1/4
f 212/1/4 218/1/4 222/1/4
f 218/2/4 219/2/4 222/2/4
f 219/2/4 214/2/4 223/2/4
f 222/2/4 219/2/4 223/2/4
f 220/2/4 221/2/4 224/2/4
f 215/2/4 220/2/4 224/2/4
f 221/1/4 217/1/4 225/1/4
f 224/2/4 221/2/4 225/2/4
f 212/1/4 222/1/4 226/1/4
f 222/1/4 223/1/4 226/1/4
f 223/2/4 214/2/4 227/2/4
f 226/1/4 223/1/4 227/1/4
f 215/2/4 224/2/4 228/2/4
f 224/1/4 225/1/4 228/1/4
f 225/1/4 217/1/4 229/1/4
f 228/1/4 225/1/4 229/1/4
f 212/1/4 226/1/4 230/1/4
f 226/2/4 227/2/4 230/2/4
f 227/2/4 214/2/4 231/2/4
f 230/2/4 227/2/4 231/2/4
f 215/2/4 228/2/4 232/2/4
f 228/2/4 229/2/4 232/2/4
f 229/1/4 217/1/4 233/1/4
f 232/2/4 229/2/4 233/2/4
f 212/1/4 230/1/4 234/1/4
f 230/1/4 231/1/4 234/1/4
f 231/2/4 214/2/4 235/2/4
f 234/1/4 231/1/4 235/1/4
f 215/2/4 232/2/4 236/2/4
f 232/1/4 233/1/4 236/1/4
f 233/1/4 217/1/4 237/1/4
f 236/1/4 233/1/4 237/1/4
f 212/1/4 234/1/4 238/1/4
f 234/2/4 235/2/4 238/2/4
f 235/2/4 214/2/4 239/2/4
f 238/2/4 235/2/4 239/2/4
f 215/2/4 236/2/4 240/2/4
f 236/2/4 237/2/4 240/2/4
f 237/1/4 217/1/4 241/1/4
f 240/2/4 237/2/4 241/2/4
f 212/1/4 238/1/4 242/1/4
f 238/1/4 239/1/4 242/1/4
f 239/2/4 214/2/4 243/2/4
f 242/1/4 239/1/4 243/1/4
f 215/2/4 240/2/4 244/2/4
f 240/1/4 241/1/4 244/1/4
f 241/1/4 217/1/4 245/1/4
f 244/1/4 241/1/4 245/1/4
f 212/1/4 242/1/4 246/1/4
f 242/2/4 243/2/4 246/2/4
f 243/2/4 214/2/4 247/2/4
f 246/2/4 243/2/4 247/2/4
f 215/2/4 244/2/4 248/2/4
f 244/2/4 245/2/4 248/2/4
f 245/1/4 217/1/4 249/1/4
f 248/2/4 245/2/4 249/2/4
f 212/1/4 246/1/4 250/1/4
f 246/1/4 247/1/4 250/1/4
f 247/2/4 214/2/4 251/2/4
f 250/1/4 247/1/4 251/1/4
f 215/2/4 248/2/4 252/2/4
f 248/1/4 249/1/4 252/1/4
f 249/1/4 217/1/4 253/1/4
f 252/1/4 249/1/4 253/1/4
f 212/1/4 250/1/4 254/1/4
f 250/2/4 251/2/4 254/2/4
f 251/2/4 214/2/4 255/2/4
f 254/2/4 251/2/4 255/2/4
f 215/2/4 252/2/4 256/2/4
f 252/2/4 253/2/4 256/2/4
f 253/1/4 217/1/4 257/1/4
f 256/2/4 253/2/4 257/2/4
f 211/2/4 212/2/4 258/2/4
f 212/1/4 254/1/4 259/1/4
f 258/2/4 212/2/4 259/2/4
f 254/1/4 255/1/4 259/1/4
f 255/2/4 214/2/4 260/2/4
f 259/1/4 255/1/4 260/1/4
f 214/1/4 215/1/4 261/1/4
f 260/2/4 214/2/4 261/2/4
f 215/2/4 256/2/4 262/2/4
f 261/1/4 215/1/4 262/1/4
f 256/1/4 257/1/4 263/1/4
f 262/2/4 256/2/4 263/2/4
f 257/1/4 217/1/4 264/1/4
f 263/1/4 257/1/4 264/1/4
f 267/2/5 266/2/5 265/2/5
f 268/2/5 266/2/5 267/2/5
f 269/1/6 270/1/6 271/1/6
f 271/1/6 270/1/6 272/1/6
f 273/1/6 274/1/6 275/1/6
f 275/1/6 274/1/6 276/1/6
f 273/1/6 275/1/6 277/1/6
f 276/1/6 274/1/6 278/1/6
f 273/1/6 277/1/6 279/1/6
f 277/1/6 278/1/6 279/1/6
f 278/1/6 274/1/6 280/1/6
f 279/1/6 278/1/6 280/1/6
f 269/1/6 271/1/6 281/1/6
f 272/1/6 270/1/6 282/1/6
f 269/1/6 281/1/6 283/1/6
f 281/1/6 282/1/6 283/1/6
f 282/1/6 270/1/6 284/1/6
f 283/1/6 282/1/6 284/1/6
f 285/2/6 286/2/6 287/2/6
f 287/2/6 286/2/6 288/2/6
f 289/2/6 290/2/6 291/2/6
f 291/2/6 290/2/6 292/2/6
f 285/2/6 287/2/6 293/2/6
f 288/2/6 286/2/6 294/2/6
f 285/2/6 293/2/6 295/2/6
f 293/2/6 294/2/6 295/2/6
f 294/2/6 286/2/6 296/2/6
f 295/2/6 294/2/6 296/2/6
