# MagicaVoxel @ Ephtracy

# material
mtllib SandBoulderHole.mtl
usemtl palette

# normals
vn -1 0 0
vn 1 0 0
vn 0 0 1
vn 0 0 -1
vn 0 -1 0
vn 0 1 0

# texcoords
vt 0.978516 0.5
vt 0.982422 0.5

# verts
v -7.5 0 7.5
v -7.5 0 6.5
v -7.5 0 5.5
v -7.5 0 3.5
v -7.5 0 2.5
v -7.5 0 0.5
v -7.5 0 -0.5
v -7.5 0 -2.5
v -7.5 0 -3.5
v -7.5 0 -5.5
v -7.5 0 -6.5
v -7.5 0 -7.5
v -7.5 1 7.5
v -7.5 1 6.5
v -7.5 1 5.5
v -7.5 1 3.5
v -7.5 1 2.5
v -7.5 1 0.5
v -7.5 1 -0.5
v -7.5 1 -2.5
v -7.5 1 -3.5
v -7.5 1 -5.5
v -7.5 1 -6.5
v -7.5 1 -7.5
v 7.5 0 7.5
v 7.5 0 6.5
v 7.5 0 5.5
v 7.5 0 4.5
v 7.5 0 2.5
v 7.5 0 1.5
v 7.5 0 -0.5
v 7.5 0 -1.5
v 7.5 0 -3.5
v 7.5 0 -4.5
v 7.5 0 -6.5
v 7.5 0 -7.5
v 7.5 1 7.5
v 7.5 1 6.5
v 7.5 1 5.5
v 7.5 1 4.5
v 7.5 1 2.5
v 7.5 1 1.5
v 7.5 1 -0.5
v 7.5 1 -1.5
v 7.5 1 -3.5
v 7.5 1 -4.5
v 7.5 1 -6.5
v 7.5 1 -7.5
v -7.5 0 7.5
v -7.5 1 7.5
v -4.5 0 7.5
v -4.5 1 7.5
v 0.5 0 7.5
v 0.5 1 7.5
v 3.5 0 7.5
v 3.5 1 7.5
v 6.5 0 7.5
v 6.5 1 7.5
v 7.5 0 7.5
v 7.5 1 7.5
v -7.5 0 -7.5
v -7.5 1 -7.5
v -5.5 0 -7.5
v -5.5 1 -7.5
v 5.5 0 -7.5
v 5.5 1 -7.5
v 7.5 0 -7.5
v 7.5 1 -7.5
v -7.5 0 7.5
v -4.5 0 7.5
v 0.5 0 7.5
v 3.5 0 7.5
v 6.5 0 7.5
v 7.5 0 7.5
v -7.5 0 6.5
v -6.5 0 6.5
v -5.5 0 6.5
v -4.5 0 6.5
v 0.5 0 6.5
v 3.5 0 6.5
v 5.5 0 6.5
v 6.5 0 6.5
v 7.5 0 6.5
v -7.5 0 5.5
v -6.5 0 5.5
v -5.5 0 5.5
v 5.5 0 5.5
v 6.5 0 5.5
v 7.5 0 5.5
v -3.5 0 4.5
v 3.5 0 4.5
v 6.5 0 4.5
v 7.5 0 4.5
v -7.5 0 3.5
v -6.5 0 3.5
v -4.5 0 3.5
v -3.5 0 3.5
v 3.5 0 3.5
v 4.5 0 3.5
v -7.5 0 2.5
v -6.5 0 2.5
v -1.5 0 2.5
v 1.5 0 2.5
v 6.5 0 2.5
v 7.5 0 2.5
v -2.5 0 1.5
v -1.5 0 1.5
v 1.5 0 1.5
v 2.5 0 1.5
v 6.5 0 1.5
v 7.5 0 1.5
v -7.5 0 0.5
v -6.5 0 0.5
v -0.5 0 0.5
v 0.5 0 0.5
v -7.5 0 -0.5
v -6.5 0 -0.5
v -0.5 0 -0.5
v 0.5 0 -0.5
v 6.5 0 -0.5
v 7.5 0 -0.5
v -2.5 0 -1.5
v -1.5 0 -1.5
v 1.5 0 -1.5
v 2.5 0 -1.5
v 6.5 0 -1.5
v 7.5 0 -1.5
v -7.5 0 -2.5
v -6.5 0 -2.5
v -1.5 0 -2.5
v 1.5 0 -2.5
v -7.5 0 -3.5
v -6.5 0 -3.5
v -4.5 0 -3.5
v -3.5 0 -3.5
v 3.5 0 -3.5
v 4.5 0 -3.5
v 6.5 0 -3.5
v 7.5 0 -3.5
v -3.5 0 -4.5
v 3.5 0 -4.5
v 6.5 0 -4.5
v 7.5 0 -4.5
v -7.5 0 -5.5
v -6.5 0 -5.5
v -5.5 0 -5.5
v 5.5 0 -5.5
v 6.5 0 -5.5
v -7.5 0 -6.5
v -6.5 0 -6.5
v 6.5 0 -6.5
v 7.5 0 -6.5
v -7.5 0 -7.5
v -5.5 0 -7.5
v 5.5 0 -7.5
v 7.5 0 -7.5
v -7.5 1 7.5
v -4.5 1 7.5
v 0.5 1 7.5
v 3.5 1 7.5
v 6.5 1 7.5
v 7.5 1 7.5
v -7.5 1 6.5
v -6.5 1 6.5
v -5.5 1 6.5
v -4.5 1 6.5
v 0.5 1 6.5
v 3.5 1 6.5
v 5.5 1 6.5
v 6.5 1 6.5
v 7.5 1 6.5
v -7.5 1 5.5
v -6.5 1 5.5
v -5.5 1 5.5
v 5.5 1 5.5
v 6.5 1 5.5
v 7.5 1 5.5
v -3.5 1 4.5
v 3.5 1 4.5
v 6.5 1 4.5
v 7.5 1 4.5
v -7.5 1 3.5
v -6.5 1 3.5
v -4.5 1 3.5
v -3.5 1 3.5
v 3.5 1 3.5
v 4.5 1 3.5
v -7.5 1 2.5
v -6.5 1 2.5
v -1.5 1 2.5
v 1.5 1 2.5
v 6.5 1 2.5
v 7.5 1 2.5
v -2.5 1 1.5
v -1.5 1 1.5
v 1.5 1 1.5
v 2.5 1 1.5
v 6.5 1 1.5
v 7.5 1 1.5
v -7.5 1 0.5
v -6.5 1 0.5
v -0.5 1 0.5
v 0.5 1 0.5
v -7.5 1 -0.5
v -6.5 1 -0.5
v -0.5 1 -0.5
v 0.5 1 -0.5
v 6.5 1 -0.5
v 7.5 1 -0.5
v -2.5 1 -1.5
v -1.5 1 -1.5
v 1.5 1 -1.5
v 2.5 1 -1.5
v 6.5 1 -1.5
v 7.5 1 -1.5
v -7.5 1 -2.5
v -6.5 1 -2.5
v -1.5 1 -2.5
v 1.5 1 -2.5
v -7.5 1 -3.5
v -6.5 1 -3.5
v -4.5 1 -3.5
v -3.5 1 -3.5
v 3.5 1 -3.5
v 4.5 1 -3.5
v 6.5 1 -3.5
v 7.5 1 -3.5
v -3.5 1 -4.5
v 3.5 1 -4.5
v 6.5 1 -4.5
v 7.5 1 -4.5
v -7.5 1 -5.5
v -6.5 1 -5.5
v -5.5 1 -5.5
v 5.5 1 -5.5
v 6.5 1 -5.5
v -7.5 1 -6.5
v -6.5 1 -6.5
v 6.5 1 -6.5
v 7.5 1 -6.5
v -7.5 1 -7.5
v -5.5 1 -7.5
v 5.5 1 -7.5
v 7.5 1 -7.5

# faces
f 13/1/1 2/1/1 1/1/1
f 14/2/1 3/2/1 2/2/1
f 14/1/1 2/1/1 13/1/1
f 15/1/1 4/1/1 3/1/1
f 15/2/1 3/2/1 14/2/1
f 16/2/1 5/2/1 4/2/1
f 16/1/1 4/1/1 15/1/1
f 17/1/1 6/1/1 5/1/1
f 17/2/1 5/2/1 16/2/1
f 18/2/1 7/2/1 6/2/1
f 18/1/1 6/1/1 17/1/1
f 19/1/1 8/1/1 7/1/1
f 19/2/1 7/2/1 18/2/1
f 20/2/1 9/2/1 8/2/1
f 20/1/1 8/1/1 19/1/1
f 21/1/1 10/1/1 9/1/1
f 21/2/1 9/2/1 20/2/1
f 22/2/1 11/2/1 10/2/1
f 22/1/1 10/1/1 21/1/1
f 23/1/1 12/1/1 11/1/1
f 23/2/1 11/2/1 22/2/1
f 24/1/1 12/1/1 23/1/1
f 25/1/2 26/1/2 37/1/2
f 26/2/2 27/2/2 38/2/2
f 37/1/2 26/1/2 38/1/2
f 27/1/2 28/1/2 39/1/2
f 38/2/2 27/2/2 39/2/2
f 28/2/2 29/2/2 40/2/2
f 39/1/2 28/1/2 40/1/2
f 29/1/2 30/1/2 41/1/2
f 40/2/2 29/2/2 41/2/2
f 30/2/2 31/2/2 42/2/2
f 41/1/2 30/1/2 42/1/2
f 31/1/2 32/1/2 43/1/2
f 42/2/2 31/2/2 43/2/2
f 32/2/2 33/2/2 44/2/2
f 43/1/2 32/1/2 44/1/2
f 33/1/2 34/1/2 45/1/2
f 44/2/2 33/2/2 45/2/2
f 34/2/2 35/2/2 46/2/2
f 45/1/2 34/1/2 46/1/2
f 35/1/2 36/1/2 47/1/2
f 46/2/2 35/2/2 47/2/2
f 47/1/2 36/1/2 48/1/2
f 51/1/3 50/1/3 49/1/3
f 52/1/3 50/1/3 51/1/3
f 53/2/3 52/2/3 51/2/3
f 54/2/3 52/2/3 53/2/3
f 55/1/3 54/1/3 53/1/3
f 56/1/3 54/1/3 55/1/3
f 57/2/3 56/2/3 55/2/3
f 58/2/3 56/2/3 57/2/3
f 59/1/3 58/1/3 57/1/3
f 60/1/3 58/1/3 59/1/3
f 61/1/4 62/1/4 63/1/4
f 63/1/4 62/1/4 64/1/4
f 63/2/4 64/2/4 65/2/4
f 65/2/4 64/2/4 66/2/4
f 65/1/4 66/1/4 67/1/4
f 67/1/4 66/1/4 68/1/4
f 75/1/5 70/1/5 69/1/5
f 76/1/5 70/1/5 75/1/5
f 77/1/5 70/1/5 76/1/5
f 78/2/5 71/2/5 70/2/5
f 78/1/5 70/1/5 77/1/5
f 79/1/5 72/1/5 71/1/5
f 79/2/5 71/2/5 78/2/5
f 80/2/5 73/2/5 72/2/5
f 80/1/5 72/1/5 79/1/5
f 81/2/5 73/2/5 80/2/5
f 82/1/5 74/1/5 73/1/5
f 82/2/5 73/2/5 81/2/5
f 83/1/5 74/1/5 82/1/5
f 84/2/5 76/2/5 75/2/5
f 85/1/5 77/1/5 76/1/5
f 85/2/5 76/2/5 84/2/5
f 86/2/5 81/2/5 80/2/5
f 86/1/5 77/1/5 85/1/5
f 86/2/5 78/2/5 77/2/5
f 86/2/5 79/2/5 78/2/5
f 86/2/5 80/2/5 79/2/5
f 87/1/5 82/1/5 81/1/5
f 87/2/5 81/2/5 86/2/5
f 88/2/5 83/2/5 82/2/5
f 88/1/5 82/1/5 87/1/5
f 89/2/5 83/2/5 88/2/5
f 90/1/5 87/1/5 86/1/5
f 91/1/5 87/1/5 90/1/5
f 92/2/5 88/2/5 87/2/5
f 92/1/5 89/1/5 88/1/5
f 93/1/5 89/1/5 92/1/5
f 94/1/5 85/1/5 84/1/5
f 95/2/5 86/2/5 85/2/5
f 95/1/5 85/1/5 94/1/5
f 96/1/5 90/1/5 86/1/5
f 97/2/5 91/2/5 90/2/5
f 97/1/5 90/1/5 96/1/5
f 98/1/5 87/1/5 91/1/5
f 98/2/5 91/2/5 97/2/5
f 99/1/5 87/1/5 98/1/5
f 100/2/5 95/2/5 94/2/5
f 101/2/5 86/2/5 95/2/5
f 101/2/5 95/2/5 100/2/5
f 102/1/5 98/1/5 97/1/5
f 103/1/5 98/1/5 102/1/5
f 104/2/5 92/2/5 87/2/5
f 104/2/5 93/2/5 92/2/5
f 105/2/5 93/2/5 104/2/5
f 106/1/5 102/1/5 97/1/5
f 107/2/5 103/2/5 102/2/5
f 107/1/5 102/1/5 106/1/5
f 108/1/5 98/1/5 103/1/5
f 108/2/5 103/2/5 107/2/5
f 109/1/5 98/1/5 108/1/5
f 110/2/5 104/2/5 87/2/5
f 110/1/5 105/1/5 104/1/5
f 111/1/5 105/1/5 110/1/5
f 112/1/5 101/1/5 100/1/5
f 113/2/5 86/2/5 101/2/5
f 113/1/5 101/1/5 112/1/5
f 114/1/5 108/1/5 107/1/5
f 115/1/5 108/1/5 114/1/5
f 116/2/5 113/2/5 112/2/5
f 117/2/5 86/2/5 113/2/5
f 117/2/5 113/2/5 116/2/5
f 118/1/5 114/1/5 107/1/5
f 118/2/5 115/2/5 114/2/5
f 119/1/5 108/1/5 115/1/5
f 119/2/5 115/2/5 118/2/5
f 120/2/5 110/2/5 87/2/5
f 120/2/5 111/2/5 110/2/5
f 121/2/5 111/2/5 120/2/5
f 122/2/5 107/2/5 106/2/5
f 122/1/5 106/1/5 97/1/5
f 123/1/5 119/1/5 118/1/5
f 123/2/5 107/2/5 122/2/5
f 123/1/5 118/1/5 107/1/5
f 124/2/5 109/2/5 108/2/5
f 124/1/5 119/1/5 123/1/5
f 124/1/5 108/1/5 119/1/5
f 125/1/5 98/1/5 109/1/5
f 125/2/5 109/2/5 124/2/5
f 126/1/5 121/1/5 120/1/5
f 126/2/5 120/2/5 87/2/5
f 127/1/5 121/1/5 126/1/5
f 128/1/5 117/1/5 116/1/5
f 129/2/5 86/2/5 117/2/5
f 129/1/5 117/1/5 128/1/5
f 130/2/5 124/2/5 123/2/5
f 130/1/5 123/1/5 122/1/5
f 131/1/5 125/1/5 124/1/5
f 131/2/5 124/2/5 130/2/5
f 132/2/5 129/2/5 128/2/5
f 133/2/5 86/2/5 129/2/5
f 133/2/5 129/2/5 132/2/5
f 134/2/5 97/2/5 96/2/5
f 134/1/5 96/1/5 86/1/5
f 135/1/5 122/1/5 97/1/5
f 135/2/5 97/2/5 134/2/5
f 135/1/5 130/1/5 122/1/5
f 135/1/5 131/1/5 130/1/5
f 136/1/5 98/1/5 125/1/5
f 136/1/5 131/1/5 135/1/5
f 136/2/5 99/2/5 98/2/5
f 136/1/5 125/1/5 131/1/5
f 137/1/5 87/1/5 99/1/5
f 137/2/5 99/2/5 136/2/5
f 138/2/5 126/2/5 87/2/5
f 138/2/5 127/2/5 126/2/5
f 139/2/5 127/2/5 138/2/5
f 140/1/5 135/1/5 134/1/5
f 140/2/5 136/2/5 135/2/5
f 141/1/5 137/1/5 136/1/5
f 141/2/5 136/2/5 140/2/5
f 142/1/5 139/1/5 138/1/5
f 142/2/5 138/2/5 87/2/5
f 143/1/5 139/1/5 142/1/5
f 144/1/5 133/1/5 132/1/5
f 145/2/5 86/2/5 133/2/5
f 145/1/5 133/1/5 144/1/5
f 146/1/5 134/1/5 86/1/5
f 146/2/5 86/2/5 145/2/5
f 146/1/5 140/1/5 134/1/5
f 146/1/5 141/1/5 140/1/5
f 147/1/5 137/1/5 141/1/5
f 147/1/5 141/1/5 146/1/5
f 147/1/5 87/1/5 137/1/5
f 147/2/5 142/2/5 87/2/5
f 147/2/5 143/2/5 142/2/5
f 148/2/5 143/2/5 147/2/5
f 149/2/5 145/2/5 144/2/5
f 150/1/5 146/1/5 145/1/5
f 150/2/5 145/2/5 149/2/5
f 151/2/5 143/2/5 148/2/5
f 151/1/5 148/1/5 147/1/5
f 152/2/5 143/2/5 151/2/5
f 153/1/5 150/1/5 149/1/5
f 154/1/5 146/1/5 150/1/5
f 154/1/5 150/1/5 153/1/5
f 154/2/5 147/2/5 146/2/5
f 155/1/5 152/1/5 151/1/5
f 155/2/5 147/2/5 154/2/5
f 155/1/5 151/1/5 147/1/5
f 156/1/5 152/1/5 155/1/5
f 157/1/6 158/1/6 163/1/6
f 163/1/6 158/1/6 164/1/6
f 164/1/6 158/1/6 165/1/6
f 158/2/6 159/2/6 166/2/6
f 165/1/6 158/1/6 166/1/6
f 159/1/6 160/1/6 167/1/6
f 166/2/6 159/2/6 167/2/6
f 160/2/6 161/2/6 168/2/6
f 167/1/6 160/1/6 168/1/6
f 168/2/6 161/2/6 169/2/6
f 161/1/6 162/1/6 170/1/6
f 169/2/6 161/2/6 170/2/6
f 170/1/6 162/1/6 171/1/6
f 163/2/6 164/2/6 172/2/6
f 164/1/6 165/1/6 173/1/6
f 172/2/6 164/2/6 173/2/6
f 168/2/6 169/2/6 174/2/6
f 173/1/6 165/1/6 174/1/6
f 165/2/6 166/2/6 174/2/6
f 166/2/6 167/2/6 174/2/6
f 167/2/6 168/2/6 174/2/6
f 169/1/6 170/1/6 175/1/6
f 174/2/6 169/2/6 175/2/6
f 170/2/6 171/2/6 176/2/6
f 175/1/6 170/1/6 176/1/6
f 176/2/6 171/2/6 177/2/6
f 174/1/6 175/1/6 178/1/6
f 178/1/6 175/1/6 179/1/6
f 175/2/6 176/2/6 180/2/6
f 176/1/6 177/1/6 180/1/6
f 180/1/6 177/1/6 181/1/6
f 172/1/6 173/1/6 182/1/6
f 173/2/6 174/2/6 183/2/6
f 182/1/6 173/1/6 183/1/6
f 174/1/6 178/1/6 184/1/6
f 178/2/6 179/2/6 185/2/6
f 184/1/6 178/1/6 185/1/6
f 179/1/6 175/1/6 186/1/6
f 185/2/6 179/2/6 186/2/6
f 186/1/6 175/1/6 187/1/6
f 182/2/6 183/2/6 188/2/6
f 183/2/6 174/2/6 189/2/6
f 188/2/6 183/2/6 189/2/6
f 185/1/6 186/1/6 190/1/6
f 190/1/6 186/1/6 191/1/6
f 175/2/6 180/2/6 192/2/6
f 180/2/6 181/2/6 192/2/6
f 192/2/6 181/2/6 193/2/6
f 185/1/6 190/1/6 194/1/6
f 190/2/6 191/2/6 195/2/6
f 194/1/6 190/1/6 195/1/6
f 191/1/6 186/1/6 196/1/6
f 195/2/6 191/2/6 196/2/6
f 196/1/6 186/1/6 197/1/6
f 175/2/6 192/2/6 198/2/6
f 192/1/6 193/1/6 198/1/6
f 198/1/6 193/1/6 199/1/6
f 188/1/6 189/1/6 200/1/6
f 189/2/6 174/2/6 201/2/6
f 200/1/6 189/1/6 201/1/6
f 195/1/6 196/1/6 202/1/6
f 202/1/6 196/1/6 203/1/6
f 200/2/6 201/2/6 204/2/6
f 201/2/6 174/2/6 205/2/6
f 204/2/6 201/2/6 205/2/6
f 195/1/6 202/1/6 206/1/6
f 202/2/6 203/2/6 206/2/6
f 203/1/6 196/1/6 207/1/6
f 206/2/6 203/2/6 207/2/6
f 175/2/6 198/2/6 208/2/6
f 198/2/6 199/2/6 208/2/6
f 208/2/6 199/2/6 209/2/6
f 194/2/6 195/2/6 210/2/6
f 185/1/6 194/1/6 210/1/6
f 206/1/6 207/1/6 211/1/6
f 210/2/6 195/2/6 211/2/6
f 195/1/6 206/1/6 211/1/6
f 196/2/6 197/2/6 212/2/6
f 211/1/6 207/1/6 212/1/6
f 207/1/6 196/1/6 212/1/6
f 197/1/6 186/1/6 213/1/6
f 212/2/6 197/2/6 213/2/6
f 208/1/6 209/1/6 214/1/6
f 175/2/6 208/2/6 214/2/6
f 214/1/6 209/1/6 215/1/6
f 204/1/6 205/1/6 216/1/6
f 205/2/6 174/2/6 217/2/6
f 216/1/6 205/1/6 217/1/6
f 211/2/6 212/2/6 218/2/6
f 210/1/6 211/1/6 218/1/6
f 212/1/6 213/1/6 219/1/6
f 218/2/6 212/2/6 219/2/6
f 216/2/6 217/2/6 220/2/6
f 217/2/6 174/2/6 221/2/6
f 220/2/6 217/2/6 221/2/6
f 184/2/6 185/2/6 222/2/6
f 174/1/6 184/1/6 222/1/6
f 185/1/6 210/1/6 223/1/6
f 222/2/6 185/2/6 223/2/6
f 210/1/6 218/1/6 223/1/6
f 218/1/6 219/1/6 223/1/6
f 213/1/6 186/1/6 224/1/6
f 223/1/6 219/1/6 224/1/6
f 186/2/6 187/2/6 224/2/6
f 219/1/6 213/1/6 224/1/6
f 187/1/6 175/1/6 225/1/6
f 224/2/6 187/2/6 225/2/6
f 175/2/6 214/2/6 226/2/6
f 214/2/6 215/2/6 226/2/6
f 226/2/6 215/2/6 227/2/6
f 222/1/6 223/1/6 228/1/6
f 223/2/6 224/2/6 228/2/6
f 224/1/6 225/1/6 229/1/6
f 228/2/6 224/2/6 229/2/6
f 226/1/6 227/1/6 230/1/6
f 175/2/6 226/2/6 230/2/6
f 230/1/6 227/1/6 231/1/6
f 220/1/6 221/1/6 232/1/6
f 221/2/6 174/2/6 233/2/6
f 232/1/6 221/1/6 233/1/6
f 174/1/6 222/1/6 234/1/6
f 233/2/6 174/2/6 234/2/6
f 222/1/6 228/1/6 234/1/6
f 228/1/6 229/1/6 234/1/6
f 229/1/6 225/1/6 235/1/6
f 234/1/6 229/1/6 235/1/6
f 225/1/6 175/1/6 235/1/6
f 175/2/6 230/2/6 235/2/6
f 230/2/6 231/2/6 235/2/6
f 235/2/6 231/2/6 236/2/6
f 232/2/6 233/2/6 237/2/6
f 233/1/6 234/1/6 238/1/6
f 237/2/6 233/2/6 238/2/6
f 236/2/6 231/2/6 239/2/6
f 235/1/6 236/1/6 239/1/6
f 239/2/6 231/2/6 240/2/6
f 237/1/6 238/1/6 241/1/6
f 238/1/6 234/1/6 242/1/6
f 241/1/6 238/1/6 242/1/6
f 234/2/6 235/2/6 242/2/6
f 239/1/6 240/1/6 243/1/6
f 242/2/6 235/2/6 243/2/6
f 235/1/6 239/1/6 243/1/6
f 243/1/6 240/1/6 244/1/6
