# MagicaVoxel @ Ephtracy

# material
mtllib Sandstone_Wall.mtl
usemtl palette

# normals
vn -1 0 0
vn 1 0 0
vn 0 0 1
vn 0 0 -1
vn 0 -1 0
vn 0 1 0

# texcoords
vt 0.0136719 0.5
vt 0.177734 0.5
vt 0.306641 0.5

# verts
v -7.5 0 7.5
v -7.5 0 -7.5
v -7.5 11 7.5
v -7.5 11 -7.5
v -7.5 12 7.5
v -7.5 12 -7.5
v -7.5 14 7.5
v -7.5 14 -7.5
v -7.5 15 7.5
v -7.5 15 -7.5
v -3.5 14 3.5
v -3.5 14 -3.5
v -3.5 15 3.5
v -3.5 15 -3.5
v 2.5 14 2.5
v 2.5 14 -2.5
v 2.5 15 2.5
v 2.5 15 -2.5
v 6.5 14 6.5
v 6.5 14 -6.5
v 6.5 15 6.5
v 6.5 15 -6.5
v -6.5 14 6.5
v -6.5 14 -6.5
v -6.5 15 6.5
v -6.5 15 -6.5
v -2.5 14 2.5
v -2.5 14 -2.5
v -2.5 15 2.5
v -2.5 15 -2.5
v 3.5 14 3.5
v 3.5 14 -3.5
v 3.5 15 3.5
v 3.5 15 -3.5
v 7.5 0 7.5
v 7.5 0 -7.5
v 7.5 11 7.5
v 7.5 11 -7.5
v 7.5 12 7.5
v 7.5 12 -7.5
v 7.5 14 7.5
v 7.5 14 -7.5
v 7.5 15 7.5
v 7.5 15 -7.5
v -7.5 0 7.5
v -7.5 11 7.5
v -7.5 12 7.5
v -7.5 14 7.5
v -7.5 15 7.5
v 7.5 0 7.5
v 7.5 11 7.5
v 7.5 12 7.5
v 7.5 14 7.5
v 7.5 15 7.5
v -3.5 14 3.5
v -3.5 15 3.5
v 3.5 14 3.5
v 3.5 15 3.5
v -2.5 14 -2.5
v -2.5 15 -2.5
v 2.5 14 -2.5
v 2.5 15 -2.5
v -6.5 14 -6.5
v -6.5 15 -6.5
v 6.5 14 -6.5
v 6.5 15 -6.5
v -6.5 14 6.5
v -6.5 15 6.5
v 6.5 14 6.5
v 6.5 15 6.5
v -2.5 14 2.5
v -2.5 15 2.5
v 2.5 14 2.5
v 2.5 15 2.5
v -3.5 14 -3.5
v -3.5 15 -3.5
v 3.5 14 -3.5
v 3.5 15 -3.5
v -7.5 0 -7.5
v -7.5 11 -7.5
v -7.5 12 -7.5
v -7.5 14 -7.5
v -7.5 15 -7.5
v 7.5 0 -7.5
v 7.5 11 -7.5
v 7.5 12 -7.5
v 7.5 14 -7.5
v 7.5 15 -7.5
v -7.5 0 7.5
v 7.5 0 7.5
v -7.5 0 -7.5
v 7.5 0 -7.5
v -6.5 14 6.5
v 6.5 14 6.5
v -3.5 14 3.5
v 3.5 14 3.5
v -2.5 14 2.5
v 2.5 14 2.5
v -2.5 14 -2.5
v 2.5 14 -2.5
v -3.5 14 -3.5
v 3.5 14 -3.5
v -6.5 14 -6.5
v 6.5 14 -6.5
v -7.5 15 7.5
v 7.5 15 7.5
v -6.5 15 6.5
v 6.5 15 6.5
v -3.5 15 3.5
v 3.5 15 3.5
v -2.5 15 2.5
v 2.5 15 2.5
v -2.5 15 -2.5
v 2.5 15 -2.5
v -3.5 15 -3.5
v 3.5 15 -3.5
v -6.5 15 -6.5
v 6.5 15 -6.5
v -7.5 15 -7.5
v 7.5 15 -7.5

# faces
f 3/1/1 2/1/1 1/1/1
f 4/1/1 2/1/1 3/1/1
f 5/2/1 4/2/1 3/2/1
f 6/2/1 4/2/1 5/2/1
f 7/1/1 6/1/1 5/1/1
f 8/1/1 6/1/1 7/1/1
f 9/2/1 8/2/1 7/2/1
f 10/2/1 8/2/1 9/2/1
f 13/2/1 12/2/1 11/2/1
f 14/2/1 12/2/1 13/2/1
f 17/2/1 16/2/1 15/2/1
f 18/2/1 16/2/1 17/2/1
f 21/2/1 20/2/1 19/2/1
f 22/2/1 20/2/1 21/2/1
f 23/2/2 24/2/2 25/2/2
f 25/2/2 24/2/2 26/2/2
f 27/2/2 28/2/2 29/2/2
f 29/2/2 28/2/2 30/2/2
f 31/2/2 32/2/2 33/2/2
f 33/2/2 32/2/2 34/2/2
f 35/1/2 36/1/2 37/1/2
f 37/1/2 36/1/2 38/1/2
f 37/2/2 38/2/2 39/2/2
f 39/2/2 38/2/2 40/2/2
f 39/1/2 40/1/2 41/1/2
f 41/1/2 40/1/2 42/1/2
f 41/2/2 42/2/2 43/2/2
f 43/2/2 42/2/2 44/2/2
f 50/1/3 46/1/3 45/1/3
f 51/2/3 47/2/3 46/2/3
f 51/1/3 46/1/3 50/1/3
f 52/1/3 48/1/3 47/1/3
f 52/2/3 47/2/3 51/2/3
f 53/2/3 49/2/3 48/2/3
f 53/1/3 48/1/3 52/1/3
f 54/2/3 49/2/3 53/2/3
f 57/2/3 56/2/3 55/2/3
f 58/2/3 56/2/3 57/2/3
f 61/2/3 60/2/3 59/2/3
f 62/2/3 60/2/3 61/2/3
f 65/2/3 64/2/3 63/2/3
f 66/2/3 64/2/3 65/2/3
f 67/2/4 68/2/4 69/2/4
f 69/2/4 68/2/4 70/2/4
f 71/2/4 72/2/4 73/2/4
f 73/2/4 72/2/4 74/2/4
f 75/2/4 76/2/4 77/2/4
f 77/2/4 76/2/4 78/2/4
f 79/1/4 80/1/4 84/1/4
f 80/2/4 81/2/4 85/2/4
f 84/1/4 80/1/4 85/1/4
f 81/1/4 82/1/4 86/1/4
f 85/2/4 81/2/4 86/2/4
f 82/2/4 83/2/4 87/2/4
f 86/1/4 82/1/4 87/1/4
f 87/2/4 83/2/4 88/2/4
f 91/1/5 90/1/5 89/1/5
f 92/1/5 90/1/5 91/1/5
f 93/1/6 94/1/6 95/1/6
f 95/1/6 94/1/6 96/1/6
f 97/1/6 98/1/6 99/1/6
f 99/1/6 98/1/6 100/1/6
f 93/1/6 95/1/6 101/1/6
f 96/1/6 94/1/6 102/1/6
f 93/1/6 101/1/6 103/1/6
f 101/1/6 102/1/6 103/1/6
f 102/1/6 94/1/6 104/1/6
f 103/1/6 102/1/6 104/1/6
f 105/2/6 106/2/6 107/2/6
f 107/2/6 106/2/6 108/2/6
f 109/2/6 110/2/6 111/2/6
f 111/2/6 110/2/6 112/2/6
f 109/2/6 111/2/6 113/2/6
f 112/2/6 110/2/6 114/2/6
f 109/2/6 113/2/6 115/2/6
f 113/2/6 114/2/6 115/2/6
f 114/2/6 110/2/6 116/2/6
f 115/2/6 114/2/6 116/2/6
f 105/2/6 107/2/6 117/2/6
f 108/2/6 106/2/6 118/2/6
f 105/2/6 117/2/6 119/2/6
f 117/2/6 118/2/6 119/2/6
f 118/2/6 106/2/6 120/2/6
f 119/2/6 118/2/6 120/2/6
