# MagicaVoxel @ Ephtracy

# material
mtllib Turtle_Enemy.mtl
usemtl palette

# normals
vn -1 0 0
vn 1 0 0
vn 0 0 1
vn 0 0 -1
vn 0 -1 0
vn 0 1 0

# texcoords
vt 0.369141 0.5
vt 0.650391 0.5
vt 0.791016 0.5
vt 0.865234 0.5
vt 0.994141 0.5

# verts
v -3.5 2 2.5
v -3.5 2 -3.5
v -3.5 3 2.5
v -3.5 3 1.5
v -3.5 3 -2.5
v -3.5 3 -3.5
v -3.5 4 1.5
v -3.5 4 -2.5
v -2.5 0 2.5
v -2.5 0 1.5
v -2.5 0 -3.5
v -2.5 0 -4.5
v -2.5 2 3.5
v -2.5 2 2.5
v -2.5 2 1.5
v -2.5 2 -3.5
v -2.5 2 -4.5
v -2.5 3 2.5
v -2.5 3 1.5
v -2.5 3 -2.5
v -2.5 3 -3.5
v -2.5 4 3.5
v -2.5 4 2.5
v -2.5 4 1.5
v -2.5 4 -2.5
v -2.5 4 -3.5
v -2.5 4 -4.5
v -2.5 5 2.5
v -2.5 5 1.5
v -2.5 5 -2.5
v -2.5 5 -3.5
v -1.5 2 -4.5
v -1.5 2 -5.5
v -1.5 3 -4.5
v -1.5 3 -5.5
v -1.5 4 3.5
v -1.5 4 2.5
v -1.5 4 -3.5
v -1.5 4 -4.5
v -1.5 5 3.5
v -1.5 5 2.5
v -1.5 5 1.5
v -1.5 5 -2.5
v -1.5 5 -3.5
v -1.5 5 -4.5
v -1.5 6 2.5
v -1.5 6 1.5
v -1.5 6 -2.5
v -1.5 6 -3.5
v -0.5 2 5.5
v -0.5 2 3.5
v -0.5 2 -5.5
v -0.5 2 -7.5
v -0.5 3 6.5
v -0.5 3 5.5
v -0.5 3 3.5
v -0.5 3 -4.5
v -0.5 3 -5.5
v -0.5 3 -6.5
v -0.5 3 -7.5
v -0.5 4 7.5
v -0.5 4 6.5
v -0.5 4 4.5
v -0.5 4 3.5
v -0.5 4 -4.5
v -0.5 4 -5.5
v -0.5 4 -6.5
v -0.5 5 6.5
v -0.5 5 5.5
v -0.5 6 6.5
v -0.5 6 5.5
v -0.5 7 7.5
v -0.5 7 4.5
v 2.5 0 2.5
v 2.5 0 1.5
v 2.5 0 -3.5
v 2.5 0 -4.5
v 2.5 2 2.5
v 2.5 2 1.5
v 2.5 2 -3.5
v 2.5 2 -4.5
v -1.5 0 2.5
v -1.5 0 1.5
v -1.5 0 -3.5
v -1.5 0 -4.5
v -1.5 2 2.5
v -1.5 2 1.5
v -1.5 2 -3.5
v -1.5 2 -4.5
v 1.5 2 5.5
v 1.5 2 3.5
v 1.5 2 -5.5
v 1.5 2 -7.5
v 1.5 3 6.5
v 1.5 3 5.5
v 1.5 3 3.5
v 1.5 3 -4.5
v 1.5 3 -5.5
v 1.5 3 -6.5
v 1.5 3 -7.5
v 1.5 4 7.5
v 1.5 4 6.5
v 1.5 4 4.5
v 1.5 4 3.5
v 1.5 4 -4.5
v 1.5 4 -5.5
v 1.5 4 -6.5
v 1.5 5 6.5
v 1.5 5 5.5
v 1.5 6 6.5
v 1.5 6 5.5
v 1.5 7 7.5
v 1.5 7 4.5
v 2.5 2 -4.5
v 2.5 2 -5.5
v 2.5 3 -4.5
v 2.5 3 -5.5
v 2.5 4 3.5
v 2.5 4 2.5
v 2.5 4 -3.5
v 2.5 4 -4.5
v 2.5 5 3.5
v 2.5 5 2.5
v 2.5 5 1.5
v 2.5 5 -2.5
v 2.5 5 -3.5
v 2.5 5 -4.5
v 2.5 6 2.5
v 2.5 6 1.5
v 2.5 6 -2.5
v 2.5 6 -3.5
v 3.5 0 2.5
v 3.5 0 1.5
v 3.5 0 -3.5
v 3.5 0 -4.5
v 3.5 2 3.5
v 3.5 2 2.5
v 3.5 2 1.5
v 3.5 2 -3.5
v 3.5 2 -4.5
v 3.5 3 2.5
v 3.5 3 1.5
v 3.5 3 -2.5
v 3.5 3 -3.5
v 3.5 4 3.5
v 3.5 4 2.5
v 3.5 4 1.5
v 3.5 4 -2.5
v 3.5 4 -3.5
v 3.5 4 -4.5
v 3.5 5 2.5
v 3.5 5 1.5
v 3.5 5 -2.5
v 3.5 5 -3.5
v 4.5 2 2.5
v 4.5 2 -3.5
v 4.5 3 2.5
v 4.5 3 1.5
v 4.5 3 -2.5
v 4.5 3 -3.5
v 4.5 4 1.5
v 4.5 4 -2.5
v -0.5 4 7.5
v -0.5 7 7.5
v 1.5 4 7.5
v 1.5 7 7.5
v -0.5 3 6.5
v -0.5 4 6.5
v 1.5 3 6.5
v 1.5 4 6.5
v -0.5 2 5.5
v -0.5 3 5.5
v 1.5 2 5.5
v 1.5 3 5.5
v -2.5 2 3.5
v -2.5 4 3.5
v -1.5 3 3.5
v -1.5 4 3.5
v -1.5 5 3.5
v -0.5 2 3.5
v -0.5 3 3.5
v -0.5 4 3.5
v -0.5 5 3.5
v 1.5 2 3.5
v 1.5 3 3.5
v 1.5 4 3.5
v 1.5 5 3.5
v 2.5 3 3.5
v 2.5 4 3.5
v 2.5 5 3.5
v 3.5 2 3.5
v 3.5 4 3.5
v -3.5 2 2.5
v -3.5 3 2.5
v -2.5 0 2.5
v -2.5 2 2.5
v -2.5 3 2.5
v -2.5 4 2.5
v -2.5 5 2.5
v -1.5 0 2.5
v -1.5 2 2.5
v -1.5 4 2.5
v -1.5 5 2.5
v -1.5 6 2.5
v -0.5 5 2.5
v -0.5 6 2.5
v 1.5 5 2.5
v 1.5 6 2.5
v 2.5 0 2.5
v 2.5 2 2.5
v 2.5 4 2.5
v 2.5 5 2.5
v 2.5 6 2.5
v 3.5 0 2.5
v 3.5 2 2.5
v 3.5 3 2.5
v 3.5 4 2.5
v 3.5 5 2.5
v 4.5 2 2.5
v 4.5 3 2.5
v -3.5 3 1.5
v -3.5 4 1.5
v -2.5 3 1.5
v -2.5 4 1.5
v 3.5 3 1.5
v 3.5 4 1.5
v 4.5 3 1.5
v 4.5 4 1.5
v -2.5 0 -3.5
v -2.5 2 -3.5
v -1.5 0 -3.5
v -1.5 2 -3.5
v 2.5 0 -3.5
v 2.5 2 -3.5
v 3.5 0 -3.5
v 3.5 2 -3.5
v -0.5 4 4.5
v -0.5 7 4.5
v 1.5 4 4.5
v 1.5 7 4.5
v -2.5 0 1.5
v -2.5 2 1.5
v -1.5 0 1.5
v -1.5 2 1.5
v 2.5 0 1.5
v 2.5 2 1.5
v 3.5 0 1.5
v 3.5 2 1.5
v -3.5 3 -2.5
v -3.5 4 -2.5
v -2.5 3 -2.5
v -2.5 4 -2.5
v 3.5 3 -2.5
v 3.5 4 -2.5
v 4.5 3 -2.5
v 4.5 4 -2.5
v -3.5 2 -3.5
v -3.5 3 -3.5
v -2.5 2 -3.5
v -2.5 3 -3.5
v -2.5 4 -3.5
v -2.5 5 -3.5
v -1.5 4 -3.5
v -1.5 5 -3.5
v -1.5 6 -3.5
v -0.5 5 -3.5
v -0.5 6 -3.5
v 1.5 5 -3.5
v 1.5 6 -3.5
v 2.5 4 -3.5
v 2.5 5 -3.5
v 2.5 6 -3.5
v 3.5 2 -3.5
v 3.5 3 -3.5
v 3.5 4 -3.5
v 3.5 5 -3.5
v 4.5 2 -3.5
v 4.5 3 -3.5
v -2.5 0 -4.5
v -2.5 2 -4.5
v -2.5 4 -4.5
v -1.5 0 -4.5
v -1.5 2 -4.5
v -1.5 3 -4.5
v -1.5 4 -4.5
v -1.5 5 -4.5
v -0.5 3 -4.5
v -0.5 4 -4.5
v -0.5 5 -4.5
v 1.5 3 -4.5
v 1.5 4 -4.5
v 1.5 5 -4.5
v 2.5 0 -4.5
v 2.5 2 -4.5
v 2.5 3 -4.5
v 2.5 4 -4.5
v 2.5 5 -4.5
v 3.5 0 -4.5
v 3.5 2 -4.5
v 3.5 4 -4.5
v -1.5 2 -5.5
v -1.5 3 -5.5
v -0.5 2 -5.5
v -0.5 3 -5.5
v 1.5 2 -5.5
v 1.5 3 -5.5
v 2.5 2 -5.5
v 2.5 3 -5.5
v -0.5 3 -6.5
v -0.5 4 -6.5
v 1.5 3 -6.5
v 1.5 4 -6.5
v -0.5 2 -7.5
v -0.5 3 -7.5
v 1.5 2 -7.5
v 1.5 3 -7.5
v -2.5 0 2.5
v -1.5 0 2.5
v 2.5 0 2.5
v 3.5 0 2.5
v -2.5 0 1.5
v -1.5 0 1.5
v 2.5 0 1.5
v 3.5 0 1.5
v -2.5 0 -3.5
v -1.5 0 -3.5
v 2.5 0 -3.5
v 3.5 0 -3.5
v -2.5 0 -4.5
v -1.5 0 -4.5
v 2.5 0 -4.5
v 3.5 0 -4.5
v -0.5 2 5.5
v 1.5 2 5.5
v -2.5 2 3.5
v -0.5 2 3.5
v 1.5 2 3.5
v 3.5 2 3.5
v -3.5 2 2.5
v -2.5 2 2.5
v -1.5 2 2.5
v -0.5 2 2.5
v 1.5 2 2.5
v 2.5 2 2.5
v 3.5 2 2.5
v 4.5 2 2.5
v -2.5 2 1.5
v -1.5 2 1.5
v 2.5 2 1.5
v 3.5 2 1.5
v -3.5 2 -3.5
v -2.5 2 -3.5
v -1.5 2 -3.5
v 2.5 2 -3.5
v 3.5 2 -3.5
v 4.5 2 -3.5
v -1.5 2 -4.5
v 2.5 2 -4.5
v -1.5 2 -5.5
v -0.5 2 -5.5
v 1.5 2 -5.5
v 2.5 2 -5.5
v -0.5 2 -7.5
v 1.5 2 -7.5
v -0.5 3 6.5
v 1.5 3 6.5
v -0.5 3 5.5
v 1.5 3 5.5
v -0.5 4 7.5
v 1.5 4 7.5
v -0.5 4 6.5
v 1.5 4 6.5
v -3.5 3 2.5
v -2.5 3 2.5
v 3.5 3 2.5
v 4.5 3 2.5
v -3.5 3 1.5
v -2.5 3 1.5
v 3.5 3 1.5
v 4.5 3 1.5
v -3.5 3 -2.5
v -2.5 3 -2.5
v 3.5 3 -2.5
v 4.5 3 -2.5
v -3.5 3 -3.5
v -2.5 3 -3.5
v 3.5 3 -3.5
v 4.5 3 -3.5
v -1.5 3 -4.5
v -0.5 3 -4.5
v 1.5 3 -4.5
v 2.5 3 -4.5
v -1.5 3 -5.5
v -0.5 3 -5.5
v 1.5 3 -5.5
v 2.5 3 -5.5
v -0.5 3 -6.5
v 1.5 3 -6.5
v -0.5 3 -7.5
v 1.5 3 -7.5
v -0.5 4 4.5
v 1.5 4 4.5
v -2.5 4 3.5
v -1.5 4 3.5
v -0.5 4 3.5
v 1.5 4 3.5
v 2.5 4 3.5
v 3.5 4 3.5
v -2.5 4 2.5
v -1.5 4 2.5
v 2.5 4 2.5
v 3.5 4 2.5
v -3.5 4 1.5
v -2.5 4 1.5
v 3.5 4 1.5
v 4.5 4 1.5
v -3.5 4 -2.5
v -2.5 4 -2.5
v 3.5 4 -2.5
v 4.5 4 -2.5
v -2.5 4 -3.5
v -1.5 4 -3.5
v 2.5 4 -3.5
v 3.5 4 -3.5
v -2.5 4 -4.5
v -1.5 4 -4.5
v -0.5 4 -4.5
v 1.5 4 -4.5
v 2.5 4 -4.5
v 3.5 4 -4.5
v -0.5 4 -5.5
v 1.5 4 -5.5
v -0.5 4 -6.5
v 1.5 4 -6.5
v -1.5 5 3.5
v -0.5 5 3.5
v 1.5 5 3.5
v 2.5 5 3.5
v -2.5 5 2.5
v -1.5 5 2.5
v -0.5 5 2.5
v 1.5 5 2.5
v 2.5 5 2.5
v 3.5 5 2.5
v -2.5 5 1.5
v -1.5 5 1.5
v 2.5 5 1.5
v 3.5 5 1.5
v -2.5 5 -2.5
v -1.5 5 -2.5
v 2.5 5 -2.5
v 3.5 5 -2.5
v -2.5 5 -3.5
v -1.5 5 -3.5
v -0.5 5 -3.5
v 1.5 5 -3.5
v 2.5 5 -3.5
v 3.5 5 -3.5
v -1.5 5 -4.5
v -0.5 5 -4.5
v 1.5 5 -4.5
v 2.5 5 -4.5
v -1.5 6 2.5
v -0.5 6 2.5
v 1.5 6 2.5
v 2.5 6 2.5
v -1.5 6 1.5
v -0.5 6 1.5
v 1.5 6 1.5
v 2.5 6 1.5
v -1.5 6 -2.5
v -0.5 6 -2.5
v 1.5 6 -2.5
v 2.5 6 -2.5
v -1.5 6 -3.5
v -0.5 6 -3.5
v 1.5 6 -3.5
v 2.5 6 -3.5
v -0.5 7 7.5
v 1.5 7 7.5
v -0.5 7 4.5
v 1.5 7 4.5

# faces
f 3/1/1 2/1/1 1/1/1
f 4/1/1 2/1/1 3/1/1
f 5/1/1 2/1/1 4/1/1
f 6/1/1 2/1/1 5/1/1
f 7/4/1 5/4/1 4/4/1
f 8/4/1 5/4/1 7/4/1
f 14/3/1 10/3/1 9/3/1
f 15/3/1 10/3/1 14/3/1
f 16/3/1 12/3/1 11/3/1
f 17/3/1 12/3/1 16/3/1
f 18/1/1 14/1/1 13/1/1
f 21/1/1 17/1/1 16/1/1
f 22/1/1 18/1/1 13/1/1
f 23/4/1 19/4/1 18/4/1
f 23/1/1 18/1/1 22/1/1
f 24/4/1 19/4/1 23/4/1
f 25/4/1 21/4/1 20/4/1
f 26/1/1 17/1/1 21/1/1
f 26/4/1 21/4/1 25/4/1
f 27/1/1 17/1/1 26/1/1
f 28/1/1 24/1/1 23/1/1
f 29/4/1 25/4/1 24/4/1
f 29/1/1 24/1/1 28/1/1
f 30/1/1 26/1/1 25/1/1
f 30/4/1 25/4/1 29/4/1
f 31/1/1 26/1/1 30/1/1
f 34/1/1 33/1/1 32/1/1
f 35/1/1 33/1/1 34/1/1
f 40/1/1 37/1/1 36/1/1
f 41/1/1 37/1/1 40/1/1
f 44/1/1 39/1/1 38/1/1
f 45/1/1 39/1/1 44/1/1
f 46/1/1 42/1/1 41/1/1
f 47/4/1 43/4/1 42/4/1
f 47/1/1 42/1/1 46/1/1
f 48/1/1 44/1/1 43/1/1
f 48/4/1 43/4/1 47/4/1
f 49/1/1 44/1/1 48/1/1
f 55/3/1 51/3/1 50/3/1
f 56/3/1 51/3/1 55/3/1
f 58/2/1 53/2/1 52/2/1
f 59/2/1 53/2/1 58/2/1
f 60/2/1 53/2/1 59/2/1
f 62/3/1 56/3/1 55/3/1
f 62/3/1 55/3/1 54/3/1
f 63/3/1 56/3/1 62/3/1
f 64/3/1 56/3/1 63/3/1
f 65/4/1 58/4/1 57/4/1
f 66/2/1 59/2/1 58/2/1
f 66/4/1 58/4/1 65/4/1
f 67/2/1 59/2/1 66/2/1
f 68/3/1 62/3/1 61/3/1
f 68/3/1 63/3/1 62/3/1
f 69/3/1 63/3/1 68/3/1
f 70/3/1 68/3/1 61/3/1
f 70/5/1 69/5/1 68/5/1
f 71/3/1 63/3/1 69/3/1
f 71/5/1 69/5/1 70/5/1
f 72/3/1 70/3/1 61/3/1
f 72/3/1 71/3/1 70/3/1
f 73/3/1 63/3/1 71/3/1
f 73/3/1 71/3/1 72/3/1
f 78/3/1 75/3/1 74/3/1
f 79/3/1 75/3/1 78/3/1
f 80/3/1 77/3/1 76/3/1
f 81/3/1 77/3/1 80/3/1
f 82/3/2 83/3/2 86/3/2
f 86/3/2 83/3/2 87/3/2
f 84/3/2 85/3/2 88/3/2
f 88/3/2 85/3/2 89/3/2
f 90/3/2 91/3/2 95/3/2
f 95/3/2 91/3/2 96/3/2
f 92/2/2 93/2/2 98/2/2
f 98/2/2 93/2/2 99/2/2
f 99/2/2 93/2/2 100/2/2
f 95/3/2 96/3/2 102/3/2
f 94/3/2 95/3/2 102/3/2
f 102/3/2 96/3/2 103/3/2
f 103/3/2 96/3/2 104/3/2
f 97/4/2 98/4/2 105/4/2
f 98/2/2 99/2/2 106/2/2
f 105/4/2 98/4/2 106/4/2
f 106/2/2 99/2/2 107/2/2
f 101/3/2 102/3/2 108/3/2
f 102/3/2 103/3/2 108/3/2
f 108/3/2 103/3/2 109/3/2
f 101/3/2 108/3/2 110/3/2
f 108/5/2 109/5/2 110/5/2
f 109/3/2 103/3/2 111/3/2
f 110/5/2 109/5/2 111/5/2
f 101/3/2 110/3/2 112/3/2
f 110/3/2 111/3/2 112/3/2
f 111/3/2 103/3/2 113/3/2
f 112/3/2 111/3/2 113/3/2
f 114/1/2 115/1/2 116/1/2
f 116/1/2 115/1/2 117/1/2
f 118/1/2 119/1/2 122/1/2
f 122/1/2 119/1/2 123/1/2
f 120/1/2 121/1/2 126/1/2
f 126/1/2 121/1/2 127/1/2
f 123/1/2 124/1/2 128/1/2
f 124/4/2 125/4/2 129/4/2
f 128/1/2 124/1/2 129/1/2
f 125/1/2 126/1/2 130/1/2
f 129/4/2 125/4/2 130/4/2
f 130/1/2 126/1/2 131/1/2
f 132/3/2 133/3/2 137/3/2
f 137/3/2 133/3/2 138/3/2
f 134/3/2 135/3/2 139/3/2
f 139/3/2 135/3/2 140/3/2
f 136/1/2 137/1/2 141/1/2
f 139/1/2 140/1/2 144/1/2
f 136/1/2 141/1/2 145/1/2
f 141/4/2 142/4/2 146/4/2
f 145/1/2 141/1/2 146/1/2
f 146/4/2 142/4/2 147/4/2
f 143/4/2 144/4/2 148/4/2
f 144/1/2 140/1/2 149/1/2
f 148/4/2 144/4/2 149/4/2
f 149/1/2 140/1/2 150/1/2
f 146/1/2 147/1/2 151/1/2
f 147/4/2 148/4/2 152/4/2
f 151/1/2 147/1/2 152/1/2
f 148/1/2 149/1/2 153/1/2
f 152/4/2 148/4/2 153/4/2
f 153/1/2 149/1/2 154/1/2
f 155/1/2 156/1/2 157/1/2
f 157/1/2 156/1/2 158/1/2
f 158/1/2 156/1/2 159/1/2
f 159/1/2 156/1/2 160/1/2
f 158/4/2 159/4/2 161/4/2
f 161/4/2 159/4/2 162/4/2
f 165/3/3 164/3/3 163/3/3
f 166/3/3 164/3/3 165/3/3
f 169/3/3 168/3/3 167/3/3
f 170/3/3 168/3/3 169/3/3
f 173/3/3 172/3/3 171/3/3
f 174/3/3 172/3/3 173/3/3
f 177/1/3 176/1/3 175/1/3
f 178/1/3 176/1/3 177/1/3
f 180/1/3 177/1/3 175/1/3
f 181/4/3 178/4/3 177/4/3
f 181/1/3 177/1/3 180/1/3
f 182/1/3 179/1/3 178/1/3
f 182/4/3 178/4/3 181/4/3
f 183/1/3 179/1/3 182/1/3
f 186/4/3 183/4/3 182/4/3
f 187/4/3 183/4/3 186/4/3
f 188/1/3 185/1/3 184/1/3
f 188/4/3 186/4/3 185/4/3
f 189/1/3 187/1/3 186/1/3
f 189/4/3 186/4/3 188/4/3
f 190/1/3 187/1/3 189/1/3
f 191/1/3 188/1/3 184/1/3
f 191/1/3 189/1/3 188/1/3
f 192/1/3 189/1/3 191/1/3
f 196/1/3 194/1/3 193/1/3
f 197/1/3 194/1/3 196/1/3
f 200/3/3 196/3/3 195/3/3
f 201/3/3 196/3/3 200/3/3
f 202/1/3 199/1/3 198/1/3
f 203/1/3 199/1/3 202/1/3
f 205/1/3 204/1/3 203/1/3
f 206/1/3 204/1/3 205/1/3
f 207/4/3 206/4/3 205/4/3
f 208/4/3 206/4/3 207/4/3
f 212/1/3 208/1/3 207/1/3
f 213/1/3 208/1/3 212/1/3
f 214/3/3 210/3/3 209/3/3
f 215/3/3 210/3/3 214/3/3
f 217/1/3 212/1/3 211/1/3
f 218/1/3 212/1/3 217/1/3
f 219/1/3 216/1/3 215/1/3
f 220/1/3 216/1/3 219/1/3
f 223/4/3 222/4/3 221/4/3
f 224/4/3 222/4/3 223/4/3
f 227/4/3 226/4/3 225/4/3
f 228/4/3 226/4/3 227/4/3
f 231/3/3 230/3/3 229/3/3
f 232/3/3 230/3/3 231/3/3
f 235/3/3 234/3/3 233/3/3
f 236/3/3 234/3/3 235/3/3
f 237/3/4 238/3/4 239/3/4
f 239/3/4 238/3/4 240/3/4
f 241/3/4 242/3/4 243/3/4
f 243/3/4 242/3/4 244/3/4
f 245/3/4 246/3/4 247/3/4
f 247/3/4 246/3/4 248/3/4
f 249/4/4 250/4/4 251/4/4
f 251/4/4 250/4/4 252/4/4
f 253/4/4 254/4/4 255/4/4
f 255/4/4 254/4/4 256/4/4
f 257/1/4 258/1/4 259/1/4
f 259/1/4 258/1/4 260/1/4
f 261/1/4 262/1/4 263/1/4
f 263/1/4 262/1/4 264/1/4
f 264/1/4 265/1/4 266/1/4
f 266/1/4 265/1/4 267/1/4
f 266/4/4 267/4/4 268/4/4
f 268/4/4 267/4/4 269/4/4
f 268/1/4 269/1/4 271/1/4
f 271/1/4 269/1/4 272/1/4
f 270/1/4 271/1/4 275/1/4
f 275/1/4 271/1/4 276/1/4
f 273/1/4 274/1/4 277/1/4
f 277/1/4 274/1/4 278/1/4
f 279/3/4 280/3/4 282/3/4
f 280/1/4 281/1/4 283/1/4
f 282/3/4 280/3/4 283/3/4
f 283/1/4 281/1/4 284/1/4
f 284/1/4 281/1/4 285/1/4
f 284/4/4 285/4/4 287/4/4
f 285/1/4 286/1/4 288/1/4
f 287/4/4 285/4/4 288/4/4
f 288/1/4 286/1/4 289/1/4
f 288/4/4 289/4/4 291/4/4
f 291/4/4 289/4/4 292/4/4
f 290/4/4 291/4/4 295/4/4
f 291/1/4 292/1/4 296/1/4
f 295/4/4 291/4/4 296/4/4
f 296/1/4 292/1/4 297/1/4
f 293/3/4 294/3/4 298/3/4
f 294/1/4 295/1/4 299/1/4
f 298/3/4 294/3/4 299/3/4
f 295/1/4 296/1/4 299/1/4
f 299/1/4 296/1/4 300/1/4
f 301/1/4 302/1/4 303/1/4
f 303/1/4 302/1/4 304/1/4
f 305/1/4 306/1/4 307/1/4
f 307/1/4 306/1/4 308/1/4
f 309/2/4 310/2/4 311/2/4
f 311/2/4 310/2/4 312/2/4
f 313/2/4 314/2/4 315/2/4
f 315/2/4 314/2/4 316/2/4
f 321/3/5 318/3/5 317/3/5
f 322/3/5 318/3/5 321/3/5
f 323/3/5 320/3/5 319/3/5
f 324/3/5 320/3/5 323/3/5
f 329/3/5 326/3/5 325/3/5
f 330/3/5 326/3/5 329/3/5
f 331/3/5 328/3/5 327/3/5
f 332/3/5 328/3/5 331/3/5
f 336/3/5 334/3/5 333/3/5
f 337/3/5 334/3/5 336/3/5
f 340/1/5 336/1/5 335/1/5
f 341/1/5 336/1/5 340/1/5
f 342/4/5 337/4/5 336/4/5
f 342/1/5 336/1/5 341/1/5
f 343/1/5 338/1/5 337/1/5
f 343/4/5 337/4/5 342/4/5
f 344/1/5 338/1/5 343/1/5
f 345/1/5 338/1/5 344/1/5
f 347/1/5 340/1/5 339/1/5
f 348/4/5 342/4/5 341/4/5
f 348/4/5 344/4/5 343/4/5
f 348/4/5 343/4/5 342/4/5
f 349/4/5 344/4/5 348/4/5
f 350/1/5 346/1/5 345/1/5
f 351/1/5 347/1/5 339/1/5
f 352/4/5 350/4/5 349/4/5
f 352/1/5 347/1/5 351/1/5
f 352/4/5 349/4/5 348/4/5
f 352/4/5 348/4/5 347/4/5
f 353/4/5 350/4/5 352/4/5
f 354/4/5 350/4/5 353/4/5
f 355/1/5 346/1/5 350/1/5
f 355/4/5 350/4/5 354/4/5
f 356/1/5 346/1/5 355/1/5
f 357/4/5 354/4/5 353/4/5
f 358/4/5 354/4/5 357/4/5
f 359/1/5 358/1/5 357/1/5
f 360/1/5 358/1/5 359/1/5
f 361/1/5 358/1/5 360/1/5
f 362/1/5 358/1/5 361/1/5
f 363/2/5 361/2/5 360/2/5
f 364/2/5 361/2/5 363/2/5
f 367/3/5 366/3/5 365/3/5
f 368/3/5 366/3/5 367/3/5
f 371/3/5 370/3/5 369/3/5
f 372/3/5 370/3/5 371/3/5
f 373/1/6 374/1/6 377/1/6
f 377/1/6 374/1/6 378/1/6
f 375/1/6 376/1/6 379/1/6
f 379/1/6 376/1/6 380/1/6
f 381/1/6 382/1/6 385/1/6
f 385/1/6 382/1/6 386/1/6
f 383/1/6 384/1/6 387/1/6
f 387/1/6 384/1/6 388/1/6
f 389/1/6 390/1/6 393/1/6
f 393/1/6 390/1/6 394/1/6
f 391/1/6 392/1/6 395/1/6
f 395/1/6 392/1/6 396/1/6
f 397/2/6 398/2/6 399/2/6
f 399/2/6 398/2/6 400/2/6
f 401/3/6 402/3/6 405/3/6
f 405/3/6 402/3/6 406/3/6
f 403/1/6 404/1/6 409/1/6
f 409/1/6 404/1/6 410/1/6
f 407/1/6 408/1/6 411/1/6
f 411/1/6 408/1/6 412/1/6
f 413/4/6 414/4/6 417/4/6
f 417/4/6 414/4/6 418/4/6
f 415/4/6 416/4/6 419/4/6
f 419/4/6 416/4/6 420/4/6
f 421/1/6 422/1/6 425/1/6
f 425/1/6 422/1/6 426/1/6
f 423/1/6 424/1/6 429/1/6
f 429/1/6 424/1/6 430/1/6
f 427/4/6 428/4/6 431/4/6
f 431/4/6 428/4/6 432/4/6
f 431/2/6 432/2/6 433/2/6
f 433/2/6 432/2/6 434/2/6
f 435/1/6 436/1/6 440/1/6
f 436/4/6 437/4/6 441/4/6
f 440/1/6 436/1/6 441/1/6
f 437/1/6 438/1/6 442/1/6
f 441/4/6 437/4/6 442/4/6
f 442/1/6 438/1/6 443/1/6
f 439/1/6 440/1/6 445/1/6
f 445/1/6 440/1/6 446/1/6
f 443/1/6 444/1/6 447/1/6
f 447/1/6 444/1/6 448/1/6
f 445/4/6 446/4/6 449/4/6
f 449/4/6 446/4/6 450/4/6
f 447/4/6 448/4/6 451/4/6
f 451/4/6 448/4/6 452/4/6
f 449/1/6 450/1/6 453/1/6
f 453/1/6 450/1/6 454/1/6
f 451/1/6 452/1/6 457/1/6
f 457/1/6 452/1/6 458/1/6
f 454/1/6 455/1/6 459/1/6
f 455/4/6 456/4/6 460/4/6
f 459/1/6 455/1/6 460/1/6
f 456/1/6 457/1/6 461/1/6
f 460/4/6 456/4/6 461/4/6
f 461/1/6 457/1/6 462/1/6
f 463/1/6 464/1/6 467/1/6
f 464/4/6 465/4/6 468/4/6
f 467/1/6 464/1/6 468/1/6
f 465/1/6 466/1/6 469/1/6
f 468/4/6 465/4/6 469/4/6
f 469/1/6 466/1/6 470/1/6
f 467/4/6 468/4/6 471/4/6
f 468/1/6 469/1/6 472/1/6
f 471/4/6 468/4/6 472/4/6
f 469/4/6 470/4/6 473/4/6
f 472/1/6 469/1/6 473/1/6
f 473/4/6 470/4/6 474/4/6
f 471/1/6 472/1/6 475/1/6
f 472/4/6 473/4/6 476/4/6
f 475/1/6 472/1/6 476/1/6
f 473/1/6 474/1/6 477/1/6
f 476/4/6 473/4/6 477/4/6
f 477/1/6 474/1/6 478/1/6
f 479/3/6 480/3/6 481/3/6
f 481/3/6 480/3/6 482/3/6
