# MagicaVoxel @ Ephtracy

# material
mtllib Sand_Ground.mtl
usemtl palette

# normals
vn -1 0 0
vn 1 0 0
vn 0 0 1
vn 0 0 -1
vn 0 -1 0
vn 0 1 0

# texcoords
vt 0.0136719 0.5
vt 0.177734 0.5
vt 0.306641 0.5

# verts
v -7.5 0 7.5
v -7.5 0 -7.5
v -7.5 12 7.5
v -7.5 12 -7.5
v -7.5 13 7.5
v -7.5 13 -7.5
v -7.5 14 6.5
v -7.5 14 5.5
v -7.5 14 3.5
v -7.5 14 2.5
v -7.5 14 0.5
v -7.5 14 -0.5
v -7.5 14 -2.5
v -7.5 14 -3.5
v -7.5 14 -5.5
v -7.5 14 -6.5
v -7.5 15 7.5
v -7.5 15 6.5
v -7.5 15 5.5
v -7.5 15 3.5
v -7.5 15 2.5
v -7.5 15 0.5
v -7.5 15 -0.5
v -7.5 15 -2.5
v -7.5 15 -3.5
v -7.5 15 -5.5
v -7.5 15 -6.5
v -7.5 15 -7.5
v 7.5 0 7.5
v 7.5 0 -7.5
v 7.5 12 7.5
v 7.5 12 -7.5
v 7.5 13 7.5
v 7.5 13 -6.5
v 7.5 14 7.5
v 7.5 14 5.5
v 7.5 14 4.5
v 7.5 14 2.5
v 7.5 14 1.5
v 7.5 14 -0.5
v 7.5 14 -1.5
v 7.5 14 -3.5
v 7.5 14 -4.5
v 7.5 14 -6.5
v 7.5 14 -7.5
v 7.5 15 7.5
v 7.5 15 5.5
v 7.5 15 4.5
v 7.5 15 2.5
v 7.5 15 1.5
v 7.5 15 -0.5
v 7.5 15 -1.5
v 7.5 15 -3.5
v 7.5 15 -4.5
v 7.5 15 -6.5
v 7.5 15 -7.5
v -7.5 0 7.5
v -7.5 12 7.5
v -7.5 13 7.5
v -7.5 15 7.5
v -4.5 14 7.5
v -4.5 15 7.5
v -0.5 13 7.5
v -0.5 14 7.5
v 0.5 14 7.5
v 0.5 15 7.5
v 3.5 14 7.5
v 3.5 15 7.5
v 4.5 13 7.5
v 4.5 14 7.5
v 7.5 0 7.5
v 7.5 12 7.5
v 7.5 13 7.5
v 7.5 14 7.5
v 7.5 15 7.5
v -7.5 0 -7.5
v -7.5 12 -7.5
v -7.5 13 -7.5
v -7.5 15 -7.5
v -4.5 13 -7.5
v -4.5 14 -7.5
v -0.5 14 -7.5
v -0.5 15 -7.5
v 0.5 13 -7.5
v 0.5 14 -7.5
v 4.5 13 -7.5
v 4.5 14 -7.5
v 4.5 15 -7.5
v 7.5 0 -7.5
v 7.5 12 -7.5
v 7.5 14 -7.5
v 7.5 15 -7.5
v -7.5 0 7.5
v 7.5 0 7.5
v -7.5 0 -7.5
v 7.5 0 -7.5
v -7.5 15 7.5
v -4.5 15 7.5
v 0.5 15 7.5
v 3.5 15 7.5
v 7.5 15 7.5
v -7.5 15 6.5
v -4.5 15 6.5
v -3.5 15 6.5
v 0.5 15 6.5
v 3.5 15 6.5
v 6.5 15 6.5
v -7.5 15 5.5
v -3.5 15 5.5
v -0.5 15 5.5
v 4.5 15 5.5
v 6.5 15 5.5
v 7.5 15 5.5
v -4.5 15 4.5
v -0.5 15 4.5
v 0.5 15 4.5
v 3.5 15 4.5
v 4.5 15 4.5
v 7.5 15 4.5
v -7.5 15 3.5
v -4.5 15 3.5
v -3.5 15 3.5
v 0.5 15 3.5
v 3.5 15 3.5
v 6.5 15 3.5
v -7.5 15 2.5
v -3.5 15 2.5
v -0.5 15 2.5
v 4.5 15 2.5
v 6.5 15 2.5
v 7.5 15 2.5
v -4.5 15 1.5
v -0.5 15 1.5
v 0.5 15 1.5
v 3.5 15 1.5
v 4.5 15 1.5
v 7.5 15 1.5
v -7.5 15 0.5
v -4.5 15 0.5
v -3.5 15 0.5
v 0.5 15 0.5
v 3.5 15 0.5
v 6.5 15 0.5
v -7.5 15 -0.5
v -3.5 15 -0.5
v -0.5 15 -0.5
v 4.5 15 -0.5
v 6.5 15 -0.5
v 7.5 15 -0.5
v -4.5 15 -1.5
v -0.5 15 -1.5
v 0.5 15 -1.5
v 3.5 15 -1.5
v 4.5 15 -1.5
v 7.5 15 -1.5
v -7.5 15 -2.5
v -4.5 15 -2.5
v -3.5 15 -2.5
v 0.5 15 -2.5
v 3.5 15 -2.5
v 6.5 15 -2.5
v -7.5 15 -3.5
v -3.5 15 -3.5
v -0.5 15 -3.5
v 4.5 15 -3.5
v 6.5 15 -3.5
v 7.5 15 -3.5
v -4.5 15 -4.5
v -0.5 15 -4.5
v 0.5 15 -4.5
v 3.5 15 -4.5
v 4.5 15 -4.5
v 7.5 15 -4.5
v -7.5 15 -5.5
v -4.5 15 -5.5
v -3.5 15 -5.5
v 0.5 15 -5.5
v 3.5 15 -5.5
v 6.5 15 -5.5
v -7.5 15 -6.5
v -3.5 15 -6.5
v -0.5 15 -6.5
v 4.5 15 -6.5
v 6.5 15 -6.5
v 7.5 15 -6.5
v -7.5 15 -7.5
v -0.5 15 -7.5
v 4.5 15 -7.5
v 7.5 15 -7.5

# faces
f 3/1/1 2/1/1 1/1/1
f 4/1/1 2/1/1 3/1/1
f 5/2/1 4/2/1 3/2/1
f 6/2/1 4/2/1 5/2/1
f 7/1/1 6/1/1 5/1/1
f 8/1/1 6/1/1 7/1/1
f 9/1/1 6/1/1 8/1/1
f 10/1/1 6/1/1 9/1/1
f 11/1/1 6/1/1 10/1/1
f 12/1/1 6/1/1 11/1/1
f 13/1/1 6/1/1 12/1/1
f 14/1/1 6/1/1 13/1/1
f 15/1/1 6/1/1 14/1/1
f 16/1/1 6/1/1 15/1/1
f 17/1/1 7/1/1 5/1/1
f 18/2/1 8/2/1 7/2/1
f 18/1/1 7/1/1 17/1/1
f 19/1/1 9/1/1 8/1/1
f 19/2/1 8/2/1 18/2/1
f 20/2/1 10/2/1 9/2/1
f 20/1/1 9/1/1 19/1/1
f 21/1/1 11/1/1 10/1/1
f 21/2/1 10/2/1 20/2/1
f 22/2/1 12/2/1 11/2/1
f 22/1/1 11/1/1 21/1/1
f 23/1/1 13/1/1 12/1/1
f 23/2/1 12/2/1 22/2/1
f 24/2/1 14/2/1 13/2/1
f 24/1/1 13/1/1 23/1/1
f 25/1/1 15/1/1 14/1/1
f 25/2/1 14/2/1 24/2/1
f 26/2/1 16/2/1 15/2/1
f 26/1/1 15/1/1 25/1/1
f 27/1/1 6/1/1 16/1/1
f 27/2/1 16/2/1 26/2/1
f 28/1/1 6/1/1 27/1/1
f 29/1/2 30/1/2 31/1/2
f 31/1/2 30/1/2 32/1/2
f 31/2/2 32/2/2 33/2/2
f 33/2/2 32/2/2 34/2/2
f 33/1/2 34/1/2 35/1/2
f 35/1/2 34/1/2 36/1/2
f 36/1/2 34/1/2 37/1/2
f 37/1/2 34/1/2 38/1/2
f 38/1/2 34/1/2 39/1/2
f 39/1/2 34/1/2 40/1/2
f 40/1/2 34/1/2 41/1/2
f 41/1/2 34/1/2 42/1/2
f 42/1/2 34/1/2 43/1/2
f 34/2/2 32/2/2 44/2/2
f 43/1/2 34/1/2 44/1/2
f 44/2/2 32/2/2 45/2/2
f 35/2/2 36/2/2 46/2/2
f 36/1/2 37/1/2 47/1/2
f 46/2/2 36/2/2 47/2/2
f 37/2/2 38/2/2 48/2/2
f 47/1/2 37/1/2 48/1/2
f 38/1/2 39/1/2 49/1/2
f 48/2/2 38/2/2 49/2/2
f 39/2/2 40/2/2 50/2/2
f 49/1/2 39/1/2 50/1/2
f 40/1/2 41/1/2 51/1/2
f 50/2/2 40/2/2 51/2/2
f 41/2/2 42/2/2 52/2/2
f 51/1/2 41/1/2 52/1/2
f 42/1/2 43/1/2 53/1/2
f 52/2/2 42/2/2 53/2/2
f 43/2/2 44/2/2 54/2/2
f 53/1/2 43/1/2 54/1/2
f 44/1/2 45/1/2 55/1/2
f 54/2/2 44/2/2 55/2/2
f 55/1/2 45/1/2 56/1/2
f 61/1/3 60/1/3 59/1/3
f 62/1/3 60/1/3 61/1/3
f 63/2/3 59/2/3 58/2/3
f 63/1/3 61/1/3 59/1/3
f 64/2/3 62/2/3 61/2/3
f 64/1/3 61/1/3 63/1/3
f 65/2/3 64/2/3 63/2/3
f 65/2/3 62/2/3 64/2/3
f 66/2/3 62/2/3 65/2/3
f 67/2/3 65/2/3 63/2/3
f 67/1/3 66/1/3 65/1/3
f 68/1/3 66/1/3 67/1/3
f 69/2/3 63/2/3 58/2/3
f 69/2/3 67/2/3 63/2/3
f 69/2/3 68/2/3 67/2/3
f 70/2/3 68/2/3 69/2/3
f 71/1/3 58/1/3 57/1/3
f 72/2/3 69/2/3 58/2/3
f 72/1/3 58/1/3 71/1/3
f 73/1/3 70/1/3 69/1/3
f 73/2/3 69/2/3 72/2/3
f 74/2/3 68/2/3 70/2/3
f 74/1/3 70/1/3 73/1/3
f 75/2/3 68/2/3 74/2/3
f 77/2/4 78/2/4 80/2/4
f 78/1/4 79/1/4 80/1/4
f 80/1/4 79/1/4 81/1/4
f 80/2/4 81/2/4 82/2/4
f 81/1/4 79/1/4 82/1/4
f 82/1/4 79/1/4 83/1/4
f 77/2/4 80/2/4 84/2/4
f 80/2/4 82/2/4 84/2/4
f 82/2/4 83/2/4 84/2/4
f 84/2/4 83/2/4 85/2/4
f 77/2/4 84/2/4 86/2/4
f 84/1/4 85/1/4 86/1/4
f 85/2/4 83/2/4 87/2/4
f 86/1/4 85/1/4 87/1/4
f 87/2/4 83/2/4 88/2/4
f 76/1/4 77/1/4 89/1/4
f 77/2/4 86/2/4 90/2/4
f 89/1/4 77/1/4 90/1/4
f 86/2/4 87/2/4 90/2/4
f 87/1/4 88/1/4 91/1/4
f 90/2/4 87/2/4 91/2/4
f 91/1/4 88/1/4 92/1/4
f 95/1/5 94/1/5 93/1/5
f 96/1/5 94/1/5 95/1/5
f 97/1/6 98/1/6 102/1/6
f 98/2/6 99/2/6 103/2/6
f 102/1/6 98/1/6 103/1/6
f 103/2/6 99/2/6 104/2/6
f 99/1/6 100/1/6 105/1/6
f 104/2/6 99/2/6 105/2/6
f 100/2/6 101/2/6 106/2/6
f 105/1/6 100/1/6 106/1/6
f 106/2/6 101/2/6 107/2/6
f 103/2/6 104/2/6 108/2/6
f 102/2/6 103/2/6 108/2/6
f 104/1/6 105/1/6 109/1/6
f 108/2/6 104/2/6 109/2/6
f 106/1/6 107/1/6 109/1/6
f 105/1/6 106/1/6 109/1/6
f 109/1/6 107/1/6 110/1/6
f 110/1/6 107/1/6 111/1/6
f 107/2/6 101/2/6 112/2/6
f 111/1/6 107/1/6 112/1/6
f 112/2/6 101/2/6 113/2/6
f 108/1/6 109/1/6 114/1/6
f 109/1/6 110/1/6 114/1/6
f 110/2/6 111/2/6 115/2/6
f 114/1/6 110/1/6 115/1/6
f 115/2/6 111/2/6 116/2/6
f 116/2/6 111/2/6 117/2/6
f 112/1/6 113/1/6 118/1/6
f 117/2/6 111/2/6 118/2/6
f 111/1/6 112/1/6 118/1/6
f 118/1/6 113/1/6 119/1/6
f 108/1/6 114/1/6 120/1/6
f 115/2/6 116/2/6 121/2/6
f 120/1/6 114/1/6 121/1/6
f 114/2/6 115/2/6 121/2/6
f 121/2/6 116/2/6 122/2/6
f 116/1/6 117/1/6 123/1/6
f 122/2/6 116/2/6 123/2/6
f 118/2/6 119/2/6 124/2/6
f 123/1/6 117/1/6 124/1/6
f 117/2/6 118/2/6 124/2/6
f 124/2/6 119/2/6 125/2/6
f 121/2/6 122/2/6 126/2/6
f 120/2/6 121/2/6 126/2/6
f 122/1/6 123/1/6 127/1/6
f 126/2/6 122/2/6 127/2/6
f 124/1/6 125/1/6 127/1/6
f 123/1/6 124/1/6 127/1/6
f 127/1/6 125/1/6 128/1/6
f 128/1/6 125/1/6 129/1/6
f 125/2/6 119/2/6 130/2/6
f 129/1/6 125/1/6 130/1/6
f 130/2/6 119/2/6 131/2/6
f 126/1/6 127/1/6 132/1/6
f 127/1/6 128/1/6 132/1/6
f 128/2/6 129/2/6 133/2/6
f 132/1/6 128/1/6 133/1/6
f 133/2/6 129/2/6 134/2/6
f 134/2/6 129/2/6 135/2/6
f 130/1/6 131/1/6 136/1/6
f 135/2/6 129/2/6 136/2/6
f 129/1/6 130/1/6 136/1/6
f 136/1/6 131/1/6 137/1/6
f 126/1/6 132/1/6 138/1/6
f 133/2/6 134/2/6 139/2/6
f 138/1/6 132/1/6 139/1/6
f 132/2/6 133/2/6 139/2/6
f 139/2/6 134/2/6 140/2/6
f 134/1/6 135/1/6 141/1/6
f 140/2/6 134/2/6 141/2/6
f 136/2/6 137/2/6 142/2/6
f 141/1/6 135/1/6 142/1/6
f 135/2/6 136/2/6 142/2/6
f 142/2/6 137/2/6 143/2/6
f 139/2/6 140/2/6 144/2/6
f 138/2/6 139/2/6 144/2/6
f 140/1/6 141/1/6 145/1/6
f 144/2/6 140/2/6 145/2/6
f 142/1/6 143/1/6 145/1/6
f 141/1/6 142/1/6 145/1/6
f 145/1/6 143/1/6 146/1/6
f 146/1/6 143/1/6 147/1/6
f 143/2/6 137/2/6 148/2/6
f 147/1/6 143/1/6 148/1/6
f 148/2/6 137/2/6 149/2/6
f 144/1/6 145/1/6 150/1/6
f 145/1/6 146/1/6 150/1/6
f 146/2/6 147/2/6 151/2/6
f 150/1/6 146/1/6 151/1/6
f 151/2/6 147/2/6 152/2/6
f 152/2/6 147/2/6 153/2/6
f 148/1/6 149/1/6 154/1/6
f 153/2/6 147/2/6 154/2/6
f 147/1/6 148/1/6 154/1/6
f 154/1/6 149/1/6 155/1/6
f 144/1/6 150/1/6 156/1/6
f 151/2/6 152/2/6 157/2/6
f 156/1/6 150/1/6 157/1/6
f 150/2/6 151/2/6 157/2/6
f 157/2/6 152/2/6 158/2/6
f 152/1/6 153/1/6 159/1/6
f 158/2/6 152/2/6 159/2/6
f 154/2/6 155/2/6 160/2/6
f 159/1/6 153/1/6 160/1/6
f 153/2/6 154/2/6 160/2/6
f 160/2/6 155/2/6 161/2/6
f 157/2/6 158/2/6 162/2/6
f 156/2/6 157/2/6 162/2/6
f 158/1/6 159/1/6 163/1/6
f 162/2/6 158/2/6 163/2/6
f 160/1/6 161/1/6 163/1/6
f 159/1/6 160/1/6 163/1/6
f 163/1/6 161/1/6 164/1/6
f 164/1/6 161/1/6 165/1/6
f 161/2/6 155/2/6 166/2/6
f 165/1/6 161/1/6 166/1/6
f 166/2/6 155/2/6 167/2/6
f 162/1/6 163/1/6 168/1/6
f 163/1/6 164/1/6 168/1/6
f 164/2/6 165/2/6 169/2/6
f 168/1/6 164/1/6 169/1/6
f 169/2/6 165/2/6 170/2/6
f 170/2/6 165/2/6 171/2/6
f 166/1/6 167/1/6 172/1/6
f 171/2/6 165/2/6 172/2/6
f 165/1/6 166/1/6 172/1/6
f 172/1/6 167/1/6 173/1/6
f 162/1/6 168/1/6 174/1/6
f 169/2/6 170/2/6 175/2/6
f 174/1/6 168/1/6 175/1/6
f 168/2/6 169/2/6 175/2/6
f 175/2/6 170/2/6 176/2/6
f 170/1/6 171/1/6 177/1/6
f 176/2/6 170/2/6 177/2/6
f 172/2/6 173/2/6 178/2/6
f 177/1/6 171/1/6 178/1/6
f 171/2/6 172/2/6 178/2/6
f 178/2/6 173/2/6 179/2/6
f 175/2/6 176/2/6 180/2/6
f 174/2/6 175/2/6 180/2/6
f 176/1/6 177/1/6 181/1/6
f 180/2/6 176/2/6 181/2/6
f 178/1/6 179/1/6 181/1/6
f 177/1/6 178/1/6 181/1/6
f 181/1/6 179/1/6 182/1/6
f 182/1/6 179/1/6 183/1/6
f 179/2/6 173/2/6 184/2/6
f 183/1/6 179/1/6 184/1/6
f 184/2/6 173/2/6 185/2/6
f 180/1/6 181/1/6 186/1/6
f 181/1/6 182/1/6 186/1/6
f 182/2/6 183/2/6 187/2/6
f 186/1/6 182/1/6 187/1/6
f 184/1/6 185/1/6 188/1/6
f 187/2/6 183/2/6 188/2/6
f 183/1/6 184/1/6 188/1/6
f 188/1/6 185/1/6 189/1/6
